<?xml version="1.0" encoding="UTF-8"?>
<svg width="36px" height="36px" viewBox="0 0 36 36" version="1.1" xmlns="http://www.w3.org/2000/svg" xmlns:xlink="http://www.w3.org/1999/xlink">
    <title>Group 29</title>
    <defs>
        <rect id="path-1" x="0" y="0" width="36" height="36"></rect>
    </defs>
    <g id="Desktop" stroke="none" stroke-width="1" fill="none" fill-rule="evenodd">
        <g id="Klub-" transform="translate(-584.000000, -260.000000)">
            <g id="Group-23" transform="translate(552.000000, 138.264935)">
                <g id="Group-24" transform="translate(32.000000, 25.735065)">
                    <g id="Group-34" transform="translate(0.000000, 96.000000)">
                        <mask id="mask-2" fill="white">
                            <use xlink:href="#path-1"></use>
                        </mask>
                        <g id="Mask" style="mix-blend-mode: darken;"></g>
                        <g id="promotion" mask="url(#mask-2)" fill="#005DAC" fill-rule="nonzero">
                            <g transform="translate(3.000000, 4.000000)">
                                <path d="M8.02528477,18.0606137 C8.30543649,17.8990229 8.40133806,17.5403647 8.23974731,17.2602129 C8.07792763,16.9802901 7.71949824,16.8841596 7.43934651,17.0457503 C7.15919479,17.20757 7.06306429,17.5662283 7.22488397,17.8461512 C7.38647473,18.1263029 7.74513304,18.2224334 8.02528477,18.0606137 L8.02528477,18.0606137 Z" id="Path"></path>
                                <path d="M5.62408233,22.1047321 L8.57483074,27.2158989 C9.21158086,28.3200263 10.6439252,28.7288098 11.7766628,28.073978 C12.8974987,27.4262416 13.2827073,25.9941261 12.6342842,24.8723748 L10.8764694,21.8273269 L12.3987645,20.9484196 C12.6789162,20.786371 12.7750467,20.4281705 12.613227,20.1480188 L11.8512784,18.8282844 C11.9421446,18.8106605 12.539527,18.6934728 23.0742848,16.6268961 C24.3766241,16.5561715 25.1568833,15.131838 24.4990761,13.9931494 L22.5517468,10.6203423 L23.796179,8.73549805 C23.918402,8.55010349 23.9257263,8.31183721 23.8147185,8.11957622 L22.642842,6.0898495 C22.5318341,5.89758851 22.3210337,5.7849785 22.1001624,5.79802477 L19.8459023,5.93329412 L17.6841106,2.18878248 C17.3709999,1.6463318 16.8100098,1.31788599 16.1837883,1.3098751 C16.1762352,1.3098751 16.1689109,1.3098751 16.1613578,1.3098751 C15.5561935,1.3098751 15.0068764,1.61108399 14.681406,2.12034671 L7.02712981,11.8711832 L2.05100339,14.7441117 C0.0938322878,15.873645 -0.584116551,18.384482 0.54976549,20.3469173 C1.58568604,22.1413532 3.76967935,22.8472257 5.62408233,22.1047321 L5.62408233,22.1047321 Z M11.6196497,25.458542 C11.943289,26.0183876 11.7517147,26.7347887 11.1902669,27.0591147 C10.6269879,27.384814 9.90967132,27.1847709 9.58969408,26.6301895 L6.66000282,21.5551861 L8.6897296,20.3833096 C12.0803894,26.2568828 11.5651758,25.3644714 11.6196497,25.458542 Z M10.2905312,20.8122347 L9.70459294,19.7973713 L10.7194563,19.2114331 L11.3053945,20.2262964 L10.2905312,20.8122347 Z M21.8090243,6.98935624 L22.6188093,8.39194593 L21.8966862,9.48554477 L20.500963,7.06786282 L21.8090243,6.98935624 Z M15.6614792,2.76281886 C15.8187212,2.50555535 16.0682028,2.47900502 16.1693687,2.48175161 C16.2693901,2.482896 16.5186428,2.51402397 16.6690184,2.77449181 L23.4842127,14.5790877 C23.7062284,14.9633808 23.4363763,15.446551 22.9912005,15.4575373 C22.9113207,15.4593684 22.8744707,15.4737879 22.6698501,15.5120112 L15.4607496,3.02534662 C15.6120407,2.83079684 15.6314957,2.81202853 15.6614792,2.76281886 L15.6614792,2.76281886 Z M14.6809482,4.01869512 L21.4542571,15.7505064 L11.2319234,17.7555139 L8.12370405,12.3719773 L14.6809482,4.01869512 Z M1.56462888,19.7609791 C1.30736537,19.3158033 1.17140941,18.8104316 1.17140941,18.2991089 C1.17140941,17.2540331 1.73308613,16.2808263 2.63694164,15.758975 L7.20382676,13.1222529 L10.133518,18.1965698 L5.5666329,20.8335208 C4.16747646,21.6410169 2.3723539,21.1599066 1.56462888,19.7609791 Z" id="Shape"></path>
                                <path d="M6.21002058,18.4320894 C6.0482009,18.1519377 5.68977152,18.0558072 5.40961979,18.2176268 L4.3947564,18.8035651 C4.11506247,18.9651559 3.75594636,18.8687966 3.59435561,18.5891026 C3.43253593,18.3089508 3.07410654,18.2128203 2.79395481,18.37464 C2.51380309,18.5364597 2.41767259,18.8948891 2.57949227,19.1750408 C3.06174688,20.0104606 4.13749288,20.3050319 4.98069465,19.8184285 L5.99555804,19.2324902 C6.27570977,19.0706706 6.37184026,18.71247 6.21002058,18.4320894 L6.21002058,18.4320894 Z" id="Path"></path>
                                <path d="M29.1291326,2.56323364 L25.864129,4.38009996 C25.5814596,4.53757086 25.479607,4.89439812 25.6370779,5.17706756 C25.7940911,5.45950808 26.1506895,5.56181841 26.4340455,5.40411864 L29.6988202,3.58725226 C29.9817186,3.42978136 30.0833422,3.0729541 29.9258713,2.79028472 C29.7686293,2.5073864 29.4118021,2.40576274 29.1291326,2.56323364 L29.1291326,2.56323364 Z" id="Path"></path>
                                <path d="M28.786725,8.6318144 L26.5228518,8.02527678 C26.2101988,7.94150589 25.8888483,8.12690045 25.8050775,8.43955341 C25.7213066,8.75220643 25.90693,9.07332801 26.219583,9.1570989 L28.483685,9.76363651 C28.798169,9.84809406 29.1179174,9.65972406 29.2012305,9.34935989 C29.2850014,9.03670687 29.0993779,8.71535642 28.786725,8.6318144 Z" id="Path"></path>
                                <path d="M23.0976308,0.434400913 L22.4904065,2.698503 C22.4066356,3.01115596 22.5920301,3.3322776 22.9046831,3.41627736 C23.2171072,3.49981932 23.5384577,3.31488256 23.6224575,3.00200067 L24.2294529,0.737898647 C24.3132237,0.425245628 24.1278292,0.103895177 23.8151762,0.0201242883 C23.5027521,-0.0636466004 23.1814016,0.121747954 23.0976308,0.434400913 L23.0976308,0.434400913 Z" id="Path"></path>
                            </g>
                        </g>
                    </g>
                </g>
            </g>
        </g>
    </g>
</svg>