<?xml version="1.0" encoding="UTF-8"?>
<svg width="36px" height="36px" viewBox="0 0 36 36" version="1.1" xmlns="http://www.w3.org/2000/svg" xmlns:xlink="http://www.w3.org/1999/xlink">
    <title>Group 24</title>
    <defs>
        <rect id="path-1" x="0" y="0" width="36" height="36"></rect>
    </defs>
    <g id="Desktop" stroke="none" stroke-width="1" fill="none" fill-rule="evenodd">
        <g id="Storitve-nivo-1" transform="translate(-492.000000, -200.000000)">
            <g id="Group-23" transform="translate(460.000000, 138.176624)">
                <g id="Group-24" transform="translate(32.000000, 61.823376)">
                    <mask id="mask-2" fill="white">
                        <use xlink:href="#path-1"></use>
                    </mask>
                    <use id="Mask" fill-opacity="0" fill="#F0F2F4" xlink:href="#path-1"></use>
                    <g id="delivery_5d8da9016caf3" mask="url(#mask-2)" fill="#005DAC" fill-rule="nonzero">
                        <g transform="translate(3.000000, 7.000000)" id="Shape">
                            <path d="M0,0 L0,1.18918919 L16.7043919,1.18918919 C16.941301,1.18918919 17.2432432,1.49113205 17.2432432,1.72804054 L17.2432432,17.8378378 L11.2415541,17.8378378 C10.9581929,16.151605 9.49260994,14.8648649 7.72972972,14.8648649 C5.9668495,14.8648649 4.50126719,16.151605 4.21790541,17.8378378 L1.78378378,17.8378378 C1.45396989,17.8378378 1.18918919,17.5730577 1.18918919,17.2432432 L1.18918919,11.8918919 L0,11.8918919 L0,17.2432432 C0,18.2210725 0.805954541,19.027027 1.78378378,19.027027 L4.21790541,19.027027 C4.50126719,20.7132604 5.9668495,22 7.72972972,22 C9.49260994,22 10.9581929,20.7132604 11.2415541,19.027027 L20.2719595,19.027027 C20.5553212,20.7132604 22.0209035,22 23.7837838,22 C25.546664,22 27.012247,20.7132604 27.2956081,19.027027 L27.9459459,19.027027 C28.440667,19.027027 28.875,18.8040541 29.1908784,18.4881757 C29.5067568,18.1722973 29.7297297,17.7379644 29.7297297,17.2432432 L29.7297297,11.5388513 C29.7297297,10.8699324 29.4742402,10.2567568 29.2466216,9.79222972 C29.0190036,9.32770269 28.7820947,8.99324325 28.7820947,8.99324325 L28.7820947,8.97466216 L26.3479731,5.7043919 L26.3293919,5.7043919 L26.3293919,5.68581081 C25.8021535,5.02618244 24.9567144,4.16216216 23.7837838,4.16216216 L19.027027,4.16216216 C18.8133446,4.16216216 18.6182432,4.20164681 18.4324324,4.27364865 L18.4324324,1.72804054 C18.4324324,0.775760432 17.6566726,0 16.7043919,0 L0,0 Z M0,2.37837838 L0,3.56756756 L10.7027027,3.56756756 L10.7027027,2.37837838 L0,2.37837838 Z M0,4.75675675 L0,5.94594594 L8.91891891,5.94594594 L8.91891891,4.75675675 L0,4.75675675 Z M19.027027,5.35135135 L21.4054054,5.35135135 L21.4054054,10.7027027 C21.4054054,11.1974238 21.6283784,11.6317568 21.9442568,11.9476351 C22.260135,12.2635135 22.6944681,12.4864865 23.1891891,12.4864865 L28.5405406,12.4864865 L28.5405406,17.2432432 C28.5405406,17.3431167 28.4662162,17.5033784 28.3361487,17.6334459 C28.206081,17.7635135 28.0458193,17.8378378 27.9459459,17.8378378 L27.2956081,17.8378378 C27.012247,16.151605 25.546664,14.8648649 23.7837838,14.8648649 C22.0209035,14.8648649 20.5553212,16.151605 20.2719595,17.8378378 L18.4324324,17.8378378 L18.4324324,5.94594594 C18.4324324,5.8460725 18.5067568,5.68581081 18.6368243,5.55574325 C18.7668919,5.42567568 18.9271536,5.35135135 19.027027,5.35135135 Z M22.5945947,5.35135135 L23.7837838,5.35135135 C24.2738599,5.35135135 24.9567144,5.90181572 25.3817568,6.42905406 L27.8158784,9.68074325 L27.8344594,9.69932432 C27.8460725,9.71558291 28.0063348,9.94320087 28.1875,10.3125 C28.338471,10.6190878 28.4174409,10.9837414 28.4662162,11.2972973 L23.1891891,11.2972973 C23.0893157,11.2972973 22.9290541,11.222973 22.7989865,11.0929054 C22.668919,10.9628378 22.5945947,10.8025762 22.5945947,10.7027027 L22.5945947,5.35135135 Z M0,7.13513513 L0,8.32432432 L7.13513513,8.32432432 L7.13513513,7.13513513 L0,7.13513513 Z M0,9.5135135 L0,10.7027027 L5.35135135,10.7027027 L5.35135135,9.5135135 L0,9.5135135 Z M7.72972972,16.0540541 C9.05130897,16.0540541 10.1081081,17.1108532 10.1081081,18.4324324 C10.1081081,19.7540117 9.05130897,20.8108108 7.72972972,20.8108108 C6.4081505,20.8108108 5.35135135,19.7540117 5.35135135,18.4324324 C5.35135135,17.1108532 6.4081505,16.0540541 7.72972972,16.0540541 Z M23.7837838,16.0540541 C25.1053629,16.0540541 26.1621622,17.1108532 26.1621622,18.4324324 C26.1621622,19.7540117 25.1053629,20.8108108 23.7837838,20.8108108 C22.4622046,20.8108108 21.4054054,19.7540117 21.4054054,18.4324324 C21.4054054,17.1108532 22.4622046,16.0540541 23.7837838,16.0540541 Z"></path>
                        </g>
                    </g>
                </g>
            </g>
        </g>
    </g>
</svg>