<?xml version="1.0" encoding="UTF-8"?>
<svg width="32px" height="32px" viewBox="0 0 32 32" version="1.1" xmlns="http://www.w3.org/2000/svg" xmlns:xlink="http://www.w3.org/1999/xlink">
    <title>homeandcook_logo</title>
    <g id="Desktop" stroke="none" stroke-width="1" fill="none" fill-rule="evenodd">
        <g id="Header-v3" transform="translate(-1307.000000, -97.000000)" fill-rule="nonzero">
            <g id="Group_1" transform="translate(1307.000000, 97.000000)">
                <path d="M16,0.243759881 C7.31192661,0.243759881 0.250764526,7.31279644 0.250764526,16.0007665 C0.250764526,24.6887366 7.31192661,31.753174 16,31.753174 C24.6880734,31.753174 31.7568807,24.6856705 31.7568807,15.9977004 C31.7568807,7.30973027 24.6880734,0.240693719 16.0076453,0.240693719" id="Path_1" fill="#FFFFFF"></path>
                <path d="M16,32 C7.17737003,32 0,24.8221147 0,16.0007665 C0,7.17941839 7.17737003,0 16,0 C24.82263,0 32,7.17788531 32,16.0007665 C32,24.8236478 24.8287462,32 16,32 M16,0.243759881 C7.31192661,0.243759881 0.250764526,7.31279644 0.250764526,16.0007665 C0.250764526,24.6887366 7.31192661,31.753174 16,31.753174 C24.6880734,31.753174 31.7568807,24.6856705 31.7568807,15.9977004 C31.7568807,7.30973027 24.6880734,0.240693719 16.0076453,0.240693719" id="Path_2" fill="#FFFFFF"></path>
                <path d="M27.588685,17.6059024 C26.9410855,22.3055673 23.5336137,26.1513048 18.9552395,27.3497733 C14.3768654,28.5482418 9.52927113,26.8634103 6.67298345,23.0809484 C3.81669578,19.2984864 3.5142428,14.1633263 5.90666416,10.0700922 C8.29908553,5.97685808 12.9152087,3.73168702 17.6024465,4.38154554 C24.0020704,5.26881653 28.4728718,11.1893113 27.588685,17.6059024" id="Path_3" fill="#FFFFFF"></path>
                <path d="M5.18501529,9.54036315 C5.26214291,9.78588911 5.23561982,10.0523729 5.1116208,10.2777751 C4.99798806,10.5079628 4.79424405,10.6806024 4.54892966,10.7545633 C4.20489297,10.861879 3.95107034,10.7239017 3.50917431,10.4908734 C3.06727829,10.2578451 2.81039755,10.1275332 2.70336391,9.78258995 C2.55380955,9.27206397 2.83533528,8.73466998 3.33944954,8.56838979 C3.68348624,8.46107411 3.93577982,8.60211757 4.37767584,8.83514588 C4.81957187,9.0681742 5.07798165,9.19541992 5.18501529,9.54036315 M3.40978593,8.94399463 C3.12156168,9.03436379 2.96077582,9.34169089 3.05045872,9.63081493 C3.11314985,9.80865233 3.23088685,9.89910411 3.69266055,10.1413309 C4.15443425,10.3835577 4.29510703,10.4295501 4.47706422,10.3820246 C4.76528847,10.2916555 4.92607434,9.98432837 4.83639144,9.69520433 C4.77217125,9.51736693 4.6559633,9.42691515 4.1941896,9.18468835 C3.7324159,8.94246155 3.59174312,8.89646912 3.40978593,8.94399463" id="Path_4" fill="#2C2A27"></path>
                <polygon id="Path_5" fill="#2C2A27" points="4.41743119 7.15335601 5.0351682 7.64854118 5.70948012 6.80381354 5.98623853 7.02457721 5.31192661 7.87083792 6.16972477 8.55765822 5.9235474 8.8658075 3.89602446 7.24074163 4.93119266 5.94068893 5.20795107 6.16298568"></polygon>
                <polygon id="Path_6" fill="#2C2A27" points="6.20336391 5.20174388 6.72171254 5.79964548 7.53669725 5.08982897 7.76911315 5.35811814 6.95412844 6.06793465 7.67431193 6.89733148 7.37614679 7.15795525 5.67431193 5.19254539 6.9266055 4.10099171 7.15749235 4.36928089"></polygon>
                <polygon id="Rectangle_2" fill="#2C2A27" transform="translate(8.574915, 4.561492) rotate(-33.090000) translate(-8.574915, -4.561492) " points="8.37907705 3.2611637 8.7738823 3.26068823 8.77075303 5.86182062 8.37594778 5.8622961"></polygon>
                <path d="M10.8776758,4.79394433 C10.6474452,4.90526795 10.3819762,4.91799534 10.1422018,4.82920519 C9.80428135,4.70349255 9.68348624,4.43980262 9.47706422,3.98601064 C9.2706422,3.53221866 9.14220183,3.2700618 9.2675841,2.9312509 C9.3547337,2.69054693 9.53578321,2.49573793 9.76911315,2.39160638 C10.1884723,2.17585916 10.7028523,2.32340375 10.9449541,2.7288842 L10.5810398,2.89752312 C10.4671634,2.73235033 10.2710388,2.64448679 10.0723486,2.66963027 C9.87365844,2.69477375 9.7054583,2.82874119 9.63608563,3.01710344 C9.5795107,3.19800699 9.6146789,3.34518277 9.83486239,3.82043789 C10.0550459,4.295693 10.1406728,4.41833948 10.3165138,4.49039429 C10.5050501,4.55901564 10.7159897,4.51715761 10.864243,4.38170502 C11.0124963,4.24625242 11.0736115,4.03954581 11.0229358,3.84496718 L11.383792,3.67786135 C11.5330258,4.125394 11.3121356,4.61249912 10.8776758,4.79394433" id="Path_7" fill="#2C2A27"></path>
                <polygon id="Rectangle_3" fill="#2C2A27" transform="translate(12.135826, 2.913671) rotate(-16.470000) translate(-12.135826, -2.913671) " points="11.9402312 1.61250044 12.3332808 1.61221892 12.3314208 4.21484058 11.9383712 4.2151221"></polygon>
                <path d="M14.9235474,3.6824606 L14.6727829,3.19034159 L13.6590214,3.33598429 L13.5565749,3.87869496 L13.1406728,3.93848512 L13.7140673,1.22646481 L14.029052,1.18200546 L15.3379205,3.62267044 L14.9235474,3.6824606 Z M13.9633028,1.78603938 L13.7262997,2.98644181 L14.5168196,2.87299382 L13.9633028,1.78603938 Z" id="Path_8" fill="#2C2A27"></path>
                <polygon id="Path_9" fill="#2C2A27" points="15.82263 3.63493508 15.9327217 1.03482968 16.3256881 1.05169358 16.2308869 3.29765726 17.4801223 3.3513151 17.4648318 3.70545681"></polygon>
                <path d="M19.6116208,4.21750587 C19.2782832,4.13891774 18.9954096,3.91907111 18.8363914,3.61500503 L19.1636086,3.44636612 C19.2789092,3.66523154 19.4829602,3.82342443 19.7232416,3.88022805 C20.0474006,3.98141139 20.2782875,3.9001581 20.353211,3.65946438 C20.3892876,3.56544951 20.3831573,3.46040008 20.3363914,3.37124515 C20.2808076,3.28247788 20.1966515,3.21540829 20.0978593,3.1811431 L19.8180428,3.04929814 C19.6497934,2.97842776 19.5072915,2.85749037 19.4097859,2.70282183 C19.3227169,2.53916844 19.3104521,2.34576807 19.3761468,2.1723758 C19.5091743,1.74004695 19.9143731,1.54074642 20.4311927,1.70018684 C20.7200842,1.7731521 20.9662173,1.96225898 21.1116208,2.22296747 L20.7981651,2.38547406 C20.6937396,2.2048346 20.5203413,2.07471999 20.3180428,2.02520002 C20.0259939,1.93474824 19.8134557,2.05279548 19.7461774,2.27202606 C19.7146352,2.35729865 19.722477,2.45221054 19.7675841,2.53111675 C19.8285412,2.61968654 19.9126592,2.68970436 20.0107034,2.73348345 L20.2798165,2.86379533 C20.4460033,2.92836453 20.5877477,3.04366776 20.6850153,3.19340775 C20.7832867,3.36810495 20.7995177,3.57742006 20.7293578,3.76524697 C20.587156,4.22517127 20.1314985,4.37847938 19.6116208,4.21750587" id="Path_10" fill="#2C2A27"></path>
                <polygon id="Path_11" fill="#2C2A27" points="22.9097859 3.15354765 21.8715596 5.14501988 21.5229358 4.96105016 22.5611621 2.971111 21.9281346 2.63843242 22.0917431 2.32415082 23.706422 3.17194462 23.5428135 3.48469314"></polygon>
                <path d="M24.32263,6.53399128 C24.0676789,6.56434624 23.8114176,6.48903726 23.6131498,6.32549226 C23.4082253,6.17147269 23.27684,5.93858033 23.2507645,5.68313132 C23.2094801,5.32439036 23.3899083,5.10056053 23.7003058,4.70809179 C24.0107034,4.31562305 24.1850153,4.0856609 24.5443425,4.04426771 C25.0714221,3.99082453 25.5454643,4.36698361 25.6146789,4.8935946 C25.6559633,5.25233555 25.4724771,5.4746323 25.1559633,5.86710104 C24.8394495,6.25956978 24.6743119,6.49106501 24.3149847,6.53399128 M25.2324159,4.89512768 C25.2152038,4.74987186 25.1410278,4.61746119 25.0262697,4.5271387 C24.9115116,4.43681621 24.7656127,4.3960129 24.6207951,4.41374024 C24.4342508,4.44286878 24.324159,4.54251904 24.0015291,4.95185167 C23.6788991,5.36118431 23.6070336,5.49302927 23.6223242,5.68159824 C23.6387263,5.82709934 23.7127534,5.95988961 23.8277688,6.05012633 C23.9427842,6.14036305 24.0891401,6.18047681 24.233945,6.16145259 C24.4204893,6.13232405 24.530581,6.03267379 24.853211,5.62334116 C25.175841,5.21400853 25.2477064,5.08216356 25.233945,4.89512768" id="Path_12" fill="#2C2A27"></path>
                <path d="M25.7828746,8.47947109 L26.266055,7.35265654 L25.9480122,6.97551861 L25.1131498,7.68380204 L24.8577982,7.37718584 L26.8455657,5.69079672 L27.4954128,6.45733723 C27.8134557,6.83294208 27.7737003,7.27906865 27.4373089,7.56422172 C27.1985132,7.78335506 26.8391466,7.80447468 26.5764526,7.6148134 L26.0856269,8.81521583 L25.7828746,8.47947109 Z M27.2003058,6.6781009 L26.824159,6.23197432 L26.204893,6.76395343 L26.5810398,7.21161309 C26.6704494,7.33733951 26.8228156,7.40191989 26.9750592,7.37861815 C27.1273029,7.35531642 27.2535124,7.24809848 27.3014375,7.10135221 C27.3493626,6.95460595 27.3108466,6.79330723 27.2018349,6.68423322" id="Path_13" fill="#2C2A27"></path>
                <polygon id="Path_14" fill="#2C2A27" points="26.4051988 9.35179418 28.6743119 8.09006851 29.4785933 9.54496239 29.1697248 9.71666747 28.5550459 8.60671681 27.8929664 8.97618934 28.4159021 9.92210032 28.1100917 10.0922723 27.587156 9.14636133 26.9051988 9.52503234 27.5183486 10.6334499 27.2094801 10.805155"></polygon>
                <path d="M3.42201835,23.7811527 C3.17613011,23.7123007 2.96864992,23.5463218 2.8470948,23.3212284 C2.71785842,23.0997217 2.6857593,22.8344836 2.75840979,22.5884157 C2.85779817,22.2404063 3.11009174,22.1039621 3.54740061,21.8602022 C3.98470948,21.6164423 4.23394495,21.4738658 4.58103976,21.573516 C4.82718679,21.64111 5.03462995,21.8075018 5.15443425,22.0334403 C5.28347096,22.256089 5.31606585,22.5219665 5.24464832,22.7693192 C5.14525994,23.1173286 4.88990826,23.2507067 4.45412844,23.4944665 C4.01834862,23.7382264 3.76911315,23.8838691 3.42201835,23.7857519 M4.89296636,22.6221434 C4.97446146,22.3314018 4.80637001,22.0292731 4.51681957,21.9460547 C4.33333333,21.9015954 4.1941896,21.9460547 3.73853211,22.2036123 C3.28287462,22.4611699 3.16819572,22.5516217 3.10856269,22.7309922 C3.06741972,22.8706947 3.08452245,23.0211528 3.1559633,23.1479902 C3.22512792,23.2761916 3.34412656,23.3699765 3.48470948,23.4070809 C3.66666667,23.4515403 3.80733945,23.4070809 4.26299694,23.1495233 C4.71865443,22.8919657 4.83333333,22.803047 4.89296636,22.6221434" id="Path_15" fill="#2C2A27"></path>
                <polygon id="Path_16" fill="#2C2A27" points="5.96330275 23.9267954 5.35474006 24.4342452 6.04587156 25.2651751 5.77370031 25.4920711 5.08409786 24.6596081 4.24006116 25.3632923 3.98929664 25.0597423 5.98318043 23.3963494 7.04434251 24.6749389 6.77217125 24.9018349"></polygon>
                <polygon id="Path_17" fill="#2C2A27" points="7.52140673 25.584056 7.01223242 26.189623 7.83792049 26.8856417 7.61009174 27.1569971 6.78440367 26.4609783 6.07798165 27.3011067 5.77675841 27.0481483 7.44801223 25.0582092 8.71712538 26.1282997 8.48929664 26.3996551"></polygon>
                <polygon id="Rectangle_4" fill="#2C2A27" transform="translate(8.665039, 27.621041) rotate(-57.600000) translate(-8.665039, -27.621041) " points="7.36467007 27.4251918 9.96587743 27.4220967 9.96540715 27.8168905 7.36419979 27.8199856"></polygon>
                <path d="M9.86085627,29.7601686 C9.62611464,29.6592447 9.44271778,29.4665029 9.35321101,29.2266564 C9.22477064,28.8878455 9.35321101,28.6256887 9.55198777,28.1703636 C9.75076453,27.7150386 9.87155963,27.4482825 10.2079511,27.3210367 C10.4464604,27.2291862 10.7119783,27.2385951 10.9434251,27.3470991 C11.380891,27.5231739 11.6069899,28.0094271 11.4602446,28.4585829 L11.0948012,28.2930101 C11.1441395,28.0986457 11.0815754,27.8928991 10.9324768,27.7591944 C10.7833781,27.6254897 10.57249,27.5860171 10.3853211,27.6567815 C10.2125382,27.7303694 10.1238532,27.856082 9.90978593,28.3313371 C9.69571865,28.8065922 9.66207951,28.9568342 9.72171254,29.1362047 C9.76910669,29.2740731 9.87240476,29.385439 10.0061162,29.4428209 C10.2431701,29.5558719 10.52708,29.4751969 10.6697248,29.2542519 L11.0321101,29.4167585 C10.7942877,29.8241784 10.2821809,29.9770087 9.86085627,29.766301" id="Path_18" fill="#2C2A27"></path>
                <polygon id="Rectangle_5" fill="#2C2A27" transform="translate(12.195664, 29.215727) rotate(-73.910000) translate(-12.195664, -29.215727) " points="10.8944786 29.0201147 13.4971247 29.018293 13.4968489 29.4113389 10.8942029 29.4131606"></polygon>
                <path d="M14.5948012,31.0019643 L14.4892966,30.4592536 L13.4740061,30.3182101 L13.2247706,30.8103291 L12.8103976,30.7520721 L14.1116208,28.2991424 L14.4266055,28.3420687 L15.0091743,31.0525559 L14.5948012,31.0019643 Z M14.1972477,28.9123748 L13.6360856,30.0008624 L14.4266055,30.1112442 L14.1972477,28.9123748 Z" id="Path_19" fill="#2C2A27"></path>
                <polygon id="Path_20" fill="#2C2A27" points="15.9311927 31.0694198 15.8195719 28.4677813 16.2125382 28.4509175 16.3088685 30.6984142 17.558104 30.6447564 17.5733945 30.9988981"></polygon>
                <path d="M20.3363914,30.4362574 C20.0171338,30.5605455 19.6596416,30.5387034 19.3577982,30.3764672 L19.5336391,30.051454 C19.7519233,30.1672256 20.0094299,30.1828732 20.2400612,30.0943803 C20.5642202,29.9962631 20.7110092,29.7984957 20.6376147,29.5578019 C20.6142127,29.4595982 20.5502851,29.3759948 20.4617737,29.3278398 C20.3653081,29.2857347 20.2573387,29.2781569 20.1559633,29.3063767 L19.8501529,29.3539022 C19.6734206,29.3892767 19.490164,29.3705822 19.324159,29.3002443 C19.1600612,29.2133506 19.0413483,29.0596789 18.9984709,28.8786471 C18.8669725,28.4463182 19.0902141,28.0523164 19.6100917,27.894409 C19.8905326,27.7914255 20.2009478,27.8091786 20.4678899,27.9434676 L20.2981651,28.2500838 C20.1104672,28.1593761 19.8939757,28.149409 19.6987768,28.2224884 C19.4067278,28.3114071 19.2966361,28.5291046 19.3639144,28.7498683 C19.3861434,28.8377783 19.4460472,28.9113117 19.5275229,28.9507019 C19.6275897,28.9902649 19.7367193,29.000888 19.8425076,28.9813635 L20.1376147,28.9369041 C20.3112933,28.897034 20.4930571,28.9125782 20.6574924,28.9813635 C20.8373332,29.0704386 20.9684185,29.2350078 21.0152905,29.4305562 C21.1544343,29.8904805 20.8623853,30.2752839 20.3440367,30.4331912" id="Path_21" fill="#2C2A27"></path>
                <polygon id="Path_22" fill="#2C2A27" points="21.969419 27.3225698 22.9892966 29.3247736 22.6391437 29.5041441 21.6192661 27.5019403 20.9816514 27.8269535 20.8211009 27.5111388 22.4449541 26.681742 22.6055046 26.9975567"></polygon>
                <path d="M25.5229358,27.3241029 C25.4901788,27.579862 25.3542116,27.8109503 25.146789,27.9633977 C24.9474576,28.1242104 24.6906807,28.195232 24.4373089,28.1596321 C24.0795107,28.1121065 23.9067278,27.8806113 23.6024465,27.4835433 C23.2981651,27.0864754 23.1207951,26.8595794 23.1681957,26.4993053 C23.2448637,25.9722686 23.7263278,25.6024001 24.2538226,25.6653093 C24.6116208,25.7128348 24.7813456,25.9458631 25.0840979,26.3444641 C25.3868502,26.7430652 25.5703364,26.9576965 25.5229358,27.3241029 M24.1605505,26.0363149 C23.861613,25.9973878 23.5877942,26.2087839 23.5489297,26.5085038 C23.530581,26.6970728 23.5993884,26.8273847 23.9174312,27.2428496 C24.235474,27.6583146 24.3440367,27.7579648 24.529052,27.7901595 C24.6725155,27.8097194 24.8178274,27.771004 24.9326825,27.6826204 C25.0475377,27.5942368 25.1224167,27.4635103 25.1406728,27.3195037 C25.1574924,27.1309347 25.088685,26.9990897 24.7721713,26.5836248 C24.4556575,26.1681598 24.3455657,26.0685096 24.1605505,26.0363149" id="Path_23" fill="#2C2A27"></path>
                <path d="M27.6743119,25.4828726 L26.4908257,25.1762564 L26.1651376,25.547262 L26.9892966,26.2708763 L26.7293578,26.568294 L24.7767584,24.8543094 L25.440367,24.0877689 C25.764526,23.7167633 26.204893,23.6891678 26.5412844,23.9819863 C26.792863,24.1863426 26.8669127,24.5396456 26.7186544,24.828247 L27.9770642,25.1348632 L27.6743119,25.4828726 Z M25.6865443,24.3437934 L25.3027523,24.7837877 L25.9143731,25.320366 L26.2981651,24.8819049 C26.4089362,24.7747144 26.4501498,24.6141627 26.4047551,24.466673 C26.3593604,24.3191832 26.2350772,24.2098373 26.0833236,24.1838736 C25.93157,24.1579099 25.7781532,24.2197438 25.6865443,24.3437934" id="Path_24" fill="#2C2A27"></path>
                <polygon id="Path_25" fill="#2C2A27" points="28.5810398 24.2487424 26.3425076 22.936425 27.1788991 21.5014612 27.4847095 21.6792986 26.8455657 22.7739185 27.5 23.1571887 28.0443425 22.2250755 28.3470948 22.4013798 27.8027523 23.3350261 28.4755352 23.7290279 29.1131498 22.6344081 29.4189602 22.8137786"></polygon>
                <polygon id="Path_26" fill="#F9E8E8" points="7.18195719 15.0349255 8.52599388 16.2813204 16.0764526 8.06247305 23.3425076 16.2644565 24.7079511 15.0487232 16.0993884 5.33205577"></polygon>
                <path d="M23.2721713,20.1017583 L23.2721713,22.292531 L19.9510703,22.292531 L19.9510703,16.6967853 C19.9598178,15.2982535 19.2206888,14.0021877 18.0141445,13.3003778 C16.8076002,12.5985678 15.3185466,12.5985678 14.1120023,13.3003778 C12.905458,14.0021877 12.166329,15.2982535 12.1750765,16.6967853 L12.175841,22.2848656 L8.77370031,22.2848656 L8.77370031,20.1017583 L7.60703364,20.1017583 L7.60703364,23.4638049 L24.441896,23.4638049 L24.441896,20.1017583 L23.2721713,20.1017583 Z" id="Path_27" fill="#F9E8E8"></path>
                <path d="M10.5275229,21.6777655 L10.2217125,21.2868299 C9.95257907,21.5577654 9.58627042,21.7090933 9.20489297,21.7069177 C8.5382263,21.7069177 8.1146789,21.2929622 8.1146789,20.6735975 C8.1146789,20.1385522 8.48470948,19.8717961 8.86085627,19.6096392 C8.69266055,19.3996071 8.48929664,19.1497149 8.48929664,18.8354333 C8.50746693,18.4308217 8.83992661,18.1121571 9.24388379,18.1121571 C9.64784097,18.1121571 9.98030065,18.4308217 9.99847095,18.8354333 C9.98868476,19.098514 9.84493259,19.3381535 9.617737,19.4701289 C9.617737,19.4701289 9.44189602,19.5881761 9.36085627,19.6479663 L10.2415902,20.741053 C10.382263,20.5218225 10.4296636,20.3286542 10.4342508,19.9285201 L10.7828746,19.9285201 C10.8063082,20.3176237 10.6932558,20.702689 10.4633028,21.0170076 L10.9923547,21.6716332 L10.5336391,21.6716332 M9.06727829,19.8426676 C8.7706422,20.0511666 8.47859327,20.2535333 8.47859327,20.6567336 C8.47132411,20.8501088 8.5459364,21.0375515 8.68400344,21.1727699 C8.82207049,21.3079882 9.0107207,21.3783761 9.20336391,21.3665501 C9.50975372,21.368171 9.80333725,21.2434434 10.0152905,21.0216069 L9.06727829,19.8426676 Z M9.25229358,18.4107699 C9.14344384,18.4079316 9.03844115,18.4512187 8.96306405,18.5300042 C8.88768695,18.6087897 8.84891582,18.7157775 8.85626911,18.8247018 C8.85626911,18.9902745 8.93730887,19.131318 9.16207951,19.4103387 L9.3440367,19.2800268 C9.4969419,19.1665788 9.64984709,19.0393331 9.64984709,18.8354333 C9.65486095,18.724534 9.61439434,18.616408 9.53785462,18.5361915 C9.46131491,18.455975 9.35536969,18.410656 9.24464832,18.4107699" id="Path_28" fill="#CD122D"></path>
                <path d="M12.9159021,21.7068941 C12.5781008,21.710628 12.2537988,21.5741288 12.0198777,21.3297561 C11.6911315,20.9924783 11.6911315,20.6352704 11.6911315,19.8717961 C11.6911315,19.1083218 11.6911315,18.7480477 12.0198777,18.4077037 C12.2547896,18.1649647 12.5785768,18.0292362 12.9159021,18.0320989 C13.5474006,18.0320989 14.0137615,18.4276338 14.1391437,19.1052556 L13.7553517,19.1052556 C13.6605505,18.6621952 13.3608563,18.375509 12.9220183,18.375509 C12.6945332,18.3728021 12.4760137,18.4643229 12.3180428,18.6284674 C12.0948012,18.8614957 12.0718654,19.1113879 12.0718654,19.8687299 C12.0718654,20.626072 12.0948012,20.8713649 12.3180428,21.1059263 C12.4764288,21.2694607 12.6946743,21.3608667 12.9220183,21.3588847 C13.3459132,21.3619623 13.706077,21.048779 13.7629969,20.627605 L14.1391437,20.627605 C14.0244648,21.308293 13.5474006,21.7007617 12.9159021,21.7007617" id="Path_29" fill="#CD122D"></path>
                <path d="M16.9480122,21.3282231 C16.7119422,21.5694358 16.3890445,21.7053343 16.0519878,21.7053343 C15.714931,21.7053343 15.3920333,21.5694358 15.1559633,21.3282231 C14.8272171,20.9894122 14.8272171,20.6322043 14.8272171,19.8687299 C14.8272171,19.1052556 14.8272171,18.7449816 15.1559633,18.4046376 C15.3924462,18.1641954 15.7151894,18.0288324 16.0519878,18.0288324 C16.3887861,18.0288324 16.7115293,18.1641954 16.9480122,18.4046376 C17.2767584,18.7449816 17.2767584,19.1006564 17.2767584,19.8687299 C17.2767584,20.6368035 17.2767584,20.9894122 16.9480122,21.3282231 M16.6590214,18.6330666 C16.5000302,18.4684873 16.2812745,18.3755804 16.0527523,18.3755804 C15.8242301,18.3755804 15.6054744,18.4684873 15.4464832,18.6330666 C15.2247706,18.866095 15.2003058,19.1113879 15.2003058,19.8687299 C15.2003058,20.626072 15.2247706,20.8667657 15.4464832,21.0951947 C15.6050431,21.2605679 15.8239599,21.3540305 16.0527523,21.3540305 C16.2815447,21.3540305 16.5004615,21.2605679 16.6590214,21.0951947 C16.8792049,20.8621664 16.9036697,20.6184066 16.9036697,19.8687299 C16.9036697,19.1190533 16.8792049,18.866095 16.6590214,18.6330666" id="Path_30" fill="#CD122D"></path>
                <path d="M20.148318,21.3282231 C19.912248,21.5694358 19.5893503,21.7053343 19.2522936,21.7053343 C18.9152369,21.7053343 18.5923391,21.5694358 18.3562691,21.3282231 C18.0275229,20.9894122 18.0275229,20.6322043 18.0275229,19.8687299 C18.0275229,19.1052556 18.0275229,18.7449816 18.3562691,18.4046376 C18.592752,18.1641954 18.9154952,18.0288324 19.2522936,18.0288324 C19.5890919,18.0288324 19.9118351,18.1641954 20.148318,18.4046376 C20.4770642,18.7449816 20.4770642,19.1006564 20.4770642,19.8687299 C20.4770642,20.6368035 20.4770642,20.9894122 20.148318,21.3282231 M19.8577982,18.6330666 C19.6990725,18.4685748 19.4805684,18.3757011 19.2522936,18.3757011 C19.0240188,18.3757011 18.8055147,18.4685748 18.646789,18.6330666 C18.4250765,18.866095 18.4021407,19.1113879 18.4021407,19.8687299 C18.4021407,20.626072 18.4250765,20.8667657 18.646789,21.0951947 C18.8048632,21.2608828 19.0236107,21.354595 19.2522936,21.354595 C19.4809765,21.354595 19.699724,21.2608828 19.8577982,21.0951947 C20.0779817,20.8621664 20.1024465,20.6184066 20.1024465,19.8687299 C20.1024465,19.1190533 20.0779817,18.866095 19.8577982,18.6330666" id="Path_31" fill="#CD122D"></path>
                <polygon id="Path_32" fill="#CD122D" points="23.5382263 21.6777655 22.469419 19.7522158 21.733945 20.6659321 21.733945 21.6777655 21.3577982 21.6777655 21.3577982 18.0612274 21.733945 18.0612274 21.733945 20.1385522 23.3654434 18.0612274 23.824159 18.0612274 22.7217125 19.4578642 23.9816514 21.6777655"></polygon>
                <path d="M14.9082569,16.6599914 C14.2461747,17.3121481 13.185018,17.3121481 12.5229358,16.6599914 C12.1009174,16.2153979 12.0152905,15.6144301 12.0152905,14.950606 C12.0152905,14.286782 12.1009174,13.6858142 12.5229358,13.2412207 C13.185018,12.589064 14.2461747,12.589064 14.9082569,13.2412207 C15.3302752,13.6858142 15.4143731,14.288315 15.4143731,14.950606 C15.4143731,15.612897 15.3302752,16.2153979 14.9082569,16.6599914 M14.4770642,13.624491 C14.2742606,13.4225294 13.9983138,13.3118598 13.7125382,13.3178748 C13.430421,13.3121764 13.1583814,13.423053 12.9602446,13.624491 C12.6544343,13.9403057 12.6207951,14.4722848 12.6207951,14.950606 C12.6207951,15.4289273 12.6544343,15.9609064 12.9602446,16.2767211 C13.1587881,16.4775482 13.4305548,16.5883135 13.7125382,16.5833373 C13.9981857,16.5886479 14.2738689,16.478084 14.4770642,16.2767211 C14.7828746,15.9609064 14.8058104,15.4289273 14.8058104,14.950606 C14.8058104,14.4722848 14.7813456,13.9403057 14.4770642,13.624491" id="Path_33" fill="#CD122D"></path>
                <path d="M23.5168196,15.1161788 C23.5168196,16.0574905 23.9464832,16.5986681 24.7400612,16.5986681 C25.1593628,16.6130201 25.5619544,16.4332421 25.8318043,16.1111484 L26.2446483,16.4852201 C25.82263,16.9221482 25.4342508,17.1475111 24.7232416,17.1475111 C23.6253823,17.1475111 22.9036697,16.4668232 22.9036697,14.950606 C22.9036697,13.5708331 23.558104,12.7521679 24.6131498,12.7521679 C25.6681957,12.7521679 26.3211009,13.5555023 26.3211009,14.8294926 L26.3211009,15.1161788 L23.5168196,15.1161788 M25.5932722,13.9295741 C25.4275446,13.538393 25.0446878,13.2843882 24.6207951,13.2843882 C24.1969024,13.2843882 23.8140456,13.538393 23.648318,13.9295741 C23.5584003,14.1566962 23.5152309,14.3997073 23.5214067,14.6439898 L25.7155963,14.6439898 C25.7195177,14.3998834 25.6764264,14.1573113 25.588685,13.9295741" id="Path_34" fill="#CD122D"></path>
                <path d="M10.4678899,10.8864083 L10.4678899,13.662818 L7.61009174,13.662818 L7.61009174,10.8864083 L6.38685015,10.8864083 L6.38685015,11.0213194 C6.94342508,11.0826426 6.97400612,11.1424328 6.97400612,11.6207541 L6.97400612,11.6207541 L6.97400612,17.0969195 L7.6146789,17.0969195 L7.6146789,14.2622527 L10.4724771,14.2622527 L10.4724771,17.0969195 L11.116208,17.0969195 L11.116208,10.8864083 L10.4724771,10.8864083" id="Path_35" fill="#CD122D"></path>
                <path d="M21.7171254,13.1538351 C21.4271891,12.8835794 21.0424536,12.7391989 20.646789,12.7521679 C20.0976898,12.7352282 19.5793234,13.0058374 19.2782875,13.4665836 C19.0244648,12.9959278 18.5749235,12.7521679 18,12.7521679 C17.5493029,12.7404857 17.1173587,12.9330919 16.824159,13.2764816 L16.824159,12.8027595 L15.6269113,12.8027595 L15.6269113,12.9376707 C16.148318,12.9943947 16.2110092,13.0480525 16.2171254,13.4497197 L16.2171254,17.0953864 L16.8287462,17.0953864 L16.8287462,14.4538878 C16.8287462,13.7026781 17.2446483,13.3102094 17.8700306,13.3102094 C18.4954128,13.3102094 18.8929664,13.6950127 18.8929664,14.4538878 L18.8929664,17.0953864 L19.5045872,17.0953864 L19.5045872,14.3833661 C19.5045872,13.7026781 19.9373089,13.3102094 20.5458716,13.3102094 C21.1544343,13.3102094 21.5672783,13.6950127 21.5672783,14.4538878 L21.5672783,17.0953864 L22.1788991,17.0953864 L22.1788991,14.3481052 C22.1980714,13.9057302 22.0368831,13.4745775 21.7324159,13.1538351" id="Path_36" fill="#CD122D"></path>
            </g>
        </g>
    </g>
</svg>