<?xml version="1.0" encoding="UTF-8"?>
<svg width="36px" height="36px" viewBox="0 0 36 36" version="1.1" xmlns="http://www.w3.org/2000/svg" xmlns:xlink="http://www.w3.org/1999/xlink">
    <title>Group 36</title>
    <g id="Desktop" stroke="none" stroke-width="1" fill="none" fill-rule="evenodd">
        <g id="Klub-" transform="translate(-584.000000, -366.000000)">
            <g id="Group-36" transform="translate(584.000000, 366.000000)">
                <rect id="Mask" style="mix-blend-mode: darken;" x="0" y="0" width="36" height="36"></rect>
                <g id="new" transform="translate(7.000000, 3.000000)" fill="#FFFFFF" fill-rule="nonzero">
                    <path d="M10.7278275,17.4804688 C13.7081742,17.4804688 16.7159867,15.2825928 16.7159867,10.3717041 L16.7159867,10.0625992 C17.1171402,9.275856 18.9134048,5.43769838 17.2775101,2.67761231 C16.2246536,0.900878938 14.0212845,0 10.7278275,0 C7.43437046,0 5.23039096,0.900878938 4.17753446,2.67761231 C2.54163971,5.43769838 4.33790434,9.275856 4.7390579,10.0625992 L4.7390579,10.3717041 C4.7390579,15.2825928 7.7468704,17.4804688 10.7278275,17.4804688 Z M15.4659866,10.3717041 C15.4659866,13.9306641 13.6062454,16.2304688 10.7278274,16.2304688 C7.8494094,16.2304688 5.98905784,13.9306641 5.98905784,10.3717041 L5.98905784,9.44946294 C7.58329615,9.20227056 8.61295921,8.03222663 9.17021021,6.97204594 C10.098555,7.94555669 12.0132278,9.33227544 15.4659866,9.48364263 L15.4659866,10.3717041 Z M5.2529739,3.31481931 C6.06474153,1.94458006 7.90678253,1.25 10.7278275,1.25 C13.546431,1.25 15.3878617,1.94396975 16.2008499,3.31237794 C17.0990967,4.82482913 16.6175293,6.90589906 16.1298584,8.25489044 C16.1162781,8.25401306 16.1047958,8.24707031 16.0909867,8.24707031 C11.136763,8.24707031 9.61088409,5.54870606 9.55045928,5.43762206 C9.43083034,5.20996094 9.18730009,5.07629394 8.92667996,5.10803219 C8.67033228,5.13671869 8.45854034,5.32043456 8.39323271,5.57006831 C8.38590846,5.59631344 7.6626419,8.24707025 5.3640579,8.24707025 C5.34960021,8.24707025 5.33750759,8.25431819 5.32331696,8.25527188 C4.83530271,6.9088745 4.35407865,4.83177188 5.2529739,3.31481931 Z" id="Shape"></path>
                    <path d="M0.000138325145,26.6986084 C-0.00337372402,26.8670654 0.0601028385,27.0300292 0.177900713,27.1502686 C0.295698588,27.2711182 0.456831401,27.3388672 0.625288401,27.3388672 L14.4909119,27.3388672 C15.4676651,28.9316177 17.2197174,30 19.2208694,30 C22.2817825,30 24.7720168,27.5097656 24.7720168,24.4494629 C24.7720168,21.3885498 22.2817825,18.8983154 19.2208694,18.8983154 C18.7840103,18.8983154 18.3608078,18.9543152 17.9527496,19.0502167 C17.2138046,18.3705902 16.3987945,17.7983856 15.5154251,17.3602295 C15.3054642,17.2546387 15.0539993,17.2778321 14.8666214,17.4169922 C13.7020706,18.2775879 12.2701858,18.7322998 10.725386,18.7322998 C9.17692409,18.7322998 7.74748078,18.2781982 6.59208521,17.4182129 C6.40287621,17.277832 6.15080103,17.2558594 5.94084009,17.3602295 C2.37333528,19.1369629 0.097334276,22.7148437 0.000138325145,26.6986084 L0.000138325145,26.6986084 Z M23.5220169,24.4494629 C23.5220169,26.8206787 21.5926956,28.75 19.2208694,28.75 C16.8496536,28.75 14.9203323,26.8206787 14.9203323,24.4494629 C14.9203323,22.0776367 16.8496536,20.1483154 19.2208694,20.1483154 C21.5926956,20.1483154 23.5220169,22.0776367 23.5220169,24.4494629 Z M6.17094265,18.6499024 C7.48136746,19.5227051 9.04691921,19.9822998 10.725386,19.9822998 C12.3995803,19.9822998 13.9675735,19.5227051 15.2853225,18.649292 C15.7538818,18.9064026 16.1981796,19.2101288 16.6201995,19.548645 C14.8673843,20.4828644 13.6703323,22.3282242 13.6703323,24.4494629 C13.6703323,25.0199509 13.7573074,25.5704498 13.9179443,26.0888672 L1.28690946,26.0888672 C1.57438503,22.9516602 3.39567409,20.1684571 6.17094265,18.6499024 L6.17094265,18.6499024 Z" id="Shape"></path>
                    <path d="M17.2970413,25.0744629 L18.5958694,25.0744629 L18.5958694,26.373291 C18.5958694,26.71875 18.8754104,26.998291 19.2208694,26.998291 C19.5663284,26.998291 19.8458694,26.71875 19.8458694,26.373291 L19.8458694,25.0744629 L21.1453079,25.0744629 C21.4907669,25.0744629 21.7703079,24.7949219 21.7703079,24.4494629 C21.7703079,24.1040039 21.4907669,23.8244629 21.1453079,23.8244629 L19.8458694,23.8244629 L19.8458694,22.5250244 C19.8458694,22.1795654 19.5663284,21.9000244 19.2208694,21.9000244 C18.8754104,21.9000244 18.5958694,22.1795654 18.5958694,22.5250244 L18.5958694,23.8244629 L17.2970413,23.8244629 C16.9515823,23.8244629 16.6720413,24.1040039 16.6720413,24.4494629 C16.6720413,24.7949219 16.9515823,25.0744629 17.2970413,25.0744629 Z" id="Path"></path>
                </g>
            </g>
        </g>
    </g>
</svg>