<?xml version="1.0" encoding="utf-8"?>
<!-- Generator: Adobe Illustrator 28.3.0, SVG Export Plug-In . SVG Version: 6.00 Build 0)  -->
<svg version="1.1" id="Layer_1" xmlns="http://www.w3.org/2000/svg" xmlns:xlink="http://www.w3.org/1999/xlink" x="0px" y="0px"
	 viewBox="0 0 36 36" style="enable-background:new 0 0 36 36;" xml:space="preserve">
<style type="text/css">
	.st0{fill:#0050A0;}
</style>
<g>
	<path class="st0" d="M13.3,0c-2,0-3.7,1.5-4,3.5H9.2c-1.1,0-1.9,0.9-1.9,2v0.3H4.4c-2,0-3.5,1.6-3.5,3.6v23c0,2,1.6,3.6,3.5,3.6
		h27.2c2,0,3.5-1.6,3.5-3.6v-23c0-1.9-1.5-3.5-3.4-3.6c-0.1,0-12.6-4.2-15.1-5C15.8,0.5,14.6,0,13.3,0z M13.3,1.2c1,0,2,0.4,3,0.8
		c1.9,0.6,8,2.7,11.7,3.9H12.5V5.5c0-1.1-0.9-2-1.9-2h0C10.8,2.2,11.9,1.2,13.3,1.2z M9.2,4.6h1.4c0.4,0,0.8,0.4,0.8,0.9v0.8
		c0,0.1,0,0.1,0,0.2v4.3c0,0.5-0.4,0.9-0.8,0.9H9.2c-0.4,0-0.8-0.4-0.8-0.9V10c0-0.1,0-0.1,0-0.2V6.5c0-0.1,0-0.1,0-0.2V5.5
		C8.4,5,8.8,4.6,9.2,4.6z M4.4,7h2.8v2.3H6.8c-1.4,0-2.5,1.1-2.5,2.5v1c0,0.3,0.3,0.6,0.6,0.6c0.3,0,0.6-0.3,0.6-0.6c0,0,0,0,0,0v-1
		c0-0.7,0.6-1.3,1.3-1.3h0.4v0.3c0,1.1,0.9,2,1.9,2h0.1c0,0,0,0.1,0,0.1v1.5c0,0.3,0.3,0.6,0.6,0.6c0.3,0,0.6-0.3,0.6-0.6
		c0,0,0,0,0,0v-1.5c0,0,0-0.1,0-0.1h0.1c1.1,0,1.9-0.9,1.9-2v-0.3h16.6c0.8,0,1.4,0.6,1.4,1.4v0.9c0,0.3,0.3,0.6,0.6,0.6
		c0.3,0,0.6-0.3,0.6-0.6c0,0,0,0,0,0v-0.9c0-1.4-1.1-2.5-2.5-2.5H12.5V7h19.1C32.9,7,34,8,34,9.4v23c0,1.3-1.1,2.4-2.4,2.4H4.4
		c-1.3,0-2.4-1.1-2.4-2.4v-23C2,8,3.1,7,4.4,7z M18,12.8c-0.1,0-0.2,0-0.3,0.1l-6.6,3.4c-0.3,0.1-0.4,0.4-0.4,0.6v7.5
		c0,0.2,0.1,0.4,0.3,0.5l6.6,3.7c0.2,0.1,0.4,0.1,0.6,0c2.2-1.2,4.5-2.5,6.7-3.7c0.2-0.1,0.3-0.3,0.3-0.5V17
		c0.1-0.3-0.1-0.6-0.4-0.7l-6.6-3.4C18.2,12.8,18.1,12.8,18,12.8z M18,14l5.5,2.8l-3.3,1.8c0,0,0,0,0,0L18,19.8l-5.4-3L18,14z
		 M4.9,14.5l-0.5,0.2l-0.1,0.5l0.4,0.4l0.2,0l0.5-0.2l0.1-0.5l-0.4-0.4L4.9,14.5z M31.1,14.5l-0.5,0.2l-0.1,0.5l0.4,0.4l0.2,0
		l0.5-0.2l0.1-0.5l-0.4-0.4L31.1,14.5z M4.9,16.8l-0.5,0.2l-0.1,0.5L4.7,18l0.2,0l0.5-0.2l0.1-0.5l-0.4-0.4L4.9,16.8z M31.1,16.8
		l-0.5,0.2l-0.1,0.5l0.4,0.4l0.2,0l0.5-0.2l0.1-0.5l-0.4-0.4L31.1,16.8z M11.9,17.8l5.5,3v6.3l-5.5-3V17.8z M24.1,17.8V24
		c-1.8,1-3.7,2.1-5.5,3.1v-6.3l2.2-1.2L24.1,17.8z M4.9,19.2l-0.5,0.2l-0.1,0.5l0.4,0.4l0.2,0l0.5-0.2l0.1-0.5l-0.4-0.4L4.9,19.2z
		 M31.1,19.2l-0.5,0.2l-0.1,0.5l0.4,0.4l0.2,0l0.5-0.2l0.1-0.5l-0.4-0.4L31.1,19.2z M4.9,21.5l-0.5,0.2l-0.1,0.5l0.4,0.4l0.2,0
		l0.5-0.2l0.1-0.5l-0.4-0.4L4.9,21.5z M31.1,21.5l-0.5,0.2l-0.1,0.5l0.4,0.4l0.2,0l0.5-0.2l0.1-0.5l-0.4-0.4L31.1,21.5z M4.9,23.8
		L4.5,24l-0.1,0.5l0.4,0.4l0.2,0l0.5-0.2l0.1-0.5l-0.4-0.4L4.9,23.8z M31.1,23.8L30.6,24l-0.1,0.5l0.4,0.4l0.2,0l0.5-0.2l0.1-0.5
		l-0.4-0.4L31.1,23.8z M31.1,26.1c-0.3,0-0.6,0.3-0.6,0.6v0.6h-4.9c-1.5,0-2.7,1.2-2.7,2.7v1.4H6.9c-0.8,0-1.4-0.6-1.4-1.4V29
		c0-0.3-0.3-0.6-0.6-0.6c-0.3,0-0.6,0.3-0.6,0.6c0,0,0,0,0,0V30c0,1.4,1.1,2.5,2.5,2.5h16.6c0.3,0,0.6-0.3,0.6-0.6v-2
		c0-0.8,0.7-1.5,1.5-1.5h5.5c0.3,0,0.6-0.3,0.6-0.6v-1.2C31.6,26.4,31.4,26.1,31.1,26.1C31.1,26.1,31.1,26.1,31.1,26.1z M4.9,26.1
		l-0.5,0.2l-0.1,0.5l0.4,0.4l0.2,0l0.5-0.2l0.1-0.5l-0.4-0.4L4.9,26.1z M25.8,29.6c-0.3,0-0.6,0.3-0.6,0.6v2.3
		c0,0.3,0.3,0.6,0.6,0.6h5.2c0.3,0,0.6-0.3,0.6-0.6v-2.3c0-0.3-0.3-0.6-0.6-0.6H25.8z M26.4,30.8h4.1v1.2h-4.1V30.8z"/>
</g>
</svg>
