<?xml version="1.0" encoding="UTF-8"?>
<svg width="15px" height="18px" viewBox="0 0 15 18" version="1.1" xmlns="http://www.w3.org/2000/svg" xmlns:xlink="http://www.w3.org/1999/xlink">
    <title>AB440024-968F-4514-9736-F9FE08D77921</title>
    <g id="Desktop" stroke="none" stroke-width="1" fill="none" fill-rule="evenodd">
        <g id="Header-v3" transform="translate(-1497.000000, -104.000000)" fill-rule="nonzero">
            <g id="Akcije" transform="translate(1488.000000, 97.000000)">
                <g id="akcije-icon" transform="translate(9.000000, 7.000000)">
                    <g id="Group" fill="#FFFFFF">
                        <path d="M12.478127,6.38578123 C10.9519858,4.70020663 10.0450346,3.21639569 9.55287058,2.26841612 C9.01985419,1.24161713 8.84518471,0.604903929 8.84384759,0.599836966 L8.6851883,0 L8.11853291,0.252749981 C8.08626621,0.267141564 7.69836202,0.44395747 7.20753514,0.824120465 L6.83219279,1.48542955 L7.20753514,2.26366585 C7.50085601,1.93462992 7.80339594,1.68867108 8.04671574,1.5184 C8.44369824,2.52813318 9.45001826,4.614209 11.6955979,7.09434678 C12.1958549,7.6468569 13.3594267,9.11325015 13.3594267,10.792491 C13.3594267,14.184647 10.5996911,16.9443826 7.20757032,16.9443826 L7.20753514,16.9443826 L6.83219279,17.6246577 L7.20753514,18 L7.20757032,18 C11.1817937,18 14.4150441,14.7667144 14.4150441,10.792491 C14.4150441,9.35150298 13.7090824,7.745346 12.478127,6.38578123 Z" id="Path"></path>
                        <path d="M2.86982751,15.1630636 C1.71223752,14.0143408 1.06802944,12.4788046 1.05581946,10.8393956 C1.04667078,9.61213491 1.39755799,8.42498764 2.07051405,7.40635208 C2.15267627,7.28200036 2.48227519,6.82217344 2.76838268,6.42536688 L2.94850619,6.60549038 C3.39158398,7.04856817 4.02277278,7.23974047 4.6373532,7.11683143 C5.51309335,6.94166932 6.14519702,6.16663506 6.14030599,5.27389947 C6.1372447,4.72142454 6.2064932,3.91714968 6.55361537,3.22283496 C6.74190232,2.84626106 6.97174541,2.52820355 7.20753514,2.26370103 L7.20753514,0.824120465 C6.69056413,1.2245865 6.05944571,1.85070834 5.60943603,2.75072769 C5.16906766,3.63149962 5.08099398,4.61213295 5.08468864,5.27963499 C5.08683507,5.66810218 4.81160044,6.00540711 4.43027626,6.08165787 C4.16292357,6.1350721 3.88790007,6.05195983 3.69493322,5.85899298 L2.63942143,4.80348119 L2.27632425,5.3041605 C2.23863871,5.35613206 1.35128676,6.57990926 1.18974212,6.82442542 C0.400879273,8.01857496 -0.010459621,9.40963231 0.000202114206,10.8472072 C0.0144881357,12.7671992 0.769536039,14.5660064 2.12625065,15.9123408 C3.48285969,17.2585696 5.28743755,17.9999648 7.20753514,17.9999648 L7.20753514,16.9443475 C5.56787989,16.9443475 4.02738231,16.3117512 2.86982751,15.1630636 Z" id="Path"></path>
                    </g>
                    <g id="Group" transform="translate(4.143641, 8.886011)">
                        <polygon id="Path" fill="#FFFFFF" points="5.30384382 0.0692484982 4.13369198 0.0692484982 3.05217682 1.6530264 2.68858702 3.10868754 3.05217682 3.36668042"></polygon>
                        <path d="M4.83993518,2.28495413 C4.10599962,2.28495413 3.55204682,2.77655513 3.55204682,3.6351591 C3.55204682,4.50065976 4.10596443,4.98532887 4.83993518,4.98532887 C5.57390592,4.98532887 6.12782353,4.50065976 6.12782353,3.6351591 C6.12782353,2.77655513 5.57387073,2.28495413 4.83993518,2.28495413 Z M4.83993518,4.23752954 C4.68760959,4.23752954 4.53528401,4.09903255 4.53528401,3.63512391 C4.53528401,3.17121527 4.68760959,3.03271827 4.83993518,3.03271827 C4.99226076,3.03271827 5.14458634,3.17121527 5.14458634,3.63512391 C5.14458634,4.09903255 4.99226076,4.23752954 4.83993518,4.23752954 Z" id="Shape" fill="#FFFFFF"></path>
                        <polygon id="Path" fill="#FAFCFD" points="1.99413155 4.91608038 3.05217682 3.36668042 3.05217682 1.6530264 0.823979717 4.91608038"></polygon>
                        <path d="M2.57577671,1.35020497 C2.57577671,0.491636187 2.0218591,0 1.28788835,0 C0.553917611,0 0,0.491601 0,1.35020497 C0,2.21570563 0.553917611,2.70040993 1.28788835,2.70040993 C2.0218591,2.70040993 2.57577671,2.21570563 2.57577671,1.35020497 Z M0.983237187,1.35020497 C0.983237187,0.886296327 1.13556277,0.747799331 1.28788835,0.747799331 C1.44021394,0.747799331 1.59253952,0.886296327 1.59253952,1.35020497 C1.59253952,1.8141136 1.44021394,1.9526106 1.28788835,1.9526106 C1.13556277,1.9526106 0.983237187,1.8141136 0.983237187,1.35020497 Z" id="Shape" fill="#FAFCFD"></path>
                    </g>
                </g>
            </g>
        </g>
    </g>
</svg>