<?xml version="1.0" encoding="UTF-8"?>
<svg width="36px" height="36px" viewBox="0 0 36 36" version="1.1" xmlns="http://www.w3.org/2000/svg" xmlns:xlink="http://www.w3.org/1999/xlink">
    <title>Group 28</title>
    <defs>
        <rect id="path-1" x="0" y="0" width="36" height="36"></rect>
    </defs>
    <g id="Desktop" stroke="none" stroke-width="1" fill="none" fill-rule="evenodd">
        <g id="Klub-" transform="translate(-584.000000, -212.000000)">
            <g id="Group-23" transform="translate(552.000000, 138.264935)">
                <g id="Group-24" transform="translate(32.000000, 25.735065)">
                    <g id="Group-33" transform="translate(0.000000, 48.000000)">
                        <mask id="mask-2" fill="white">
                            <use xlink:href="#path-1"></use>
                        </mask>
                        <g id="Mask" style="mix-blend-mode: darken;"></g>
                        <g id="give" mask="url(#mask-2)" fill="#005DAC" fill-rule="nonzero">
                            <g transform="translate(3.000000, 7.000000)" id="Shape">
                                <path d="M26.25,14.3749805 C25.029668,14.3749805 22.5,15.0545508 21.2176758,15.4229297 C21.0475195,13.6294336 18.7494141,12.9945703 16.3745508,12.512168 C15.2905664,12.2924414 14.4836719,11.9036719 13.7036719,11.5270312 C12.7417383,11.0631445 11.8335352,10.6249219 10.6250391,10.6249219 C9.24117188,10.6249219 7.98,10.9079883 7.26832031,11.1038086 C7.08017578,10.4491992 6.54644531,9.9215625 5.83740234,9.78017578 L0.747070312,8.76222656 C0.565195312,8.72560547 0.373535156,8.77324219 0.22828125,8.89160156 C0.0842578125,9.01060547 0,9.18761719 0,9.375 L0,19.3750195 C0,19.7204883 0.279550781,20.0000391 0.625019531,20.0000391 L4.54101562,20.0000391 C5.3128125,20.0000391 5.97052734,19.509082 6.25330078,18.8198438 C7.65380859,19.4874609 14.1258398,22.5 16.875,22.5 C19.2993164,22.5 24.2908008,20.0463867 27.592793,18.4228711 C28.453418,17.9998828 29.1650391,17.6495508 29.6264648,17.4475195 C29.8535156,17.3474414 30,17.122793 30,16.875 C30,15.402832 28.4582812,14.3749805 26.25,14.3749805 Z M6.08888672,11.7071484 L5.15994141,18.2135156 C5.11599609,18.5193164 4.84986328,18.75 4.54101562,18.75 L1.24998047,18.75 L1.24998047,10.1373047 L5.59324219,11.0058398 C5.91796875,11.0711719 6.13646484,11.3787891 6.08888672,11.7071484 Z M27.0410156,17.3010352 C24.0368555,18.7780664 19.0088086,21.2500195 16.875,21.2500195 C14.6020312,21.2500195 8.6315625,18.5882812 6.52341797,17.5628906 C6.52107422,17.5617187 6.5184375,17.5621289 6.51609375,17.5610742 L7.25150391,12.4104492 C7.70689453,12.2680078 9.09826172,11.8750195 10.6249805,11.8750195 C11.547832,11.8750195 12.2595117,12.2186719 13.1616211,12.6532031 C13.9709766,13.0438477 14.8889062,13.4863477 16.1254687,13.7377734 C18.8415234,14.2883203 19.9999805,14.8528711 19.9999805,15.6249609 C19.9999805,15.7775391 19.9535742,15.8715234 19.8351562,15.9600586 C19.438418,16.2573047 17.8856836,16.756582 12.0531445,15.0256055 C11.7198633,14.9291602 11.3744531,15.116543 11.2755469,15.4473633 C11.1778711,15.7781836 11.3658984,16.1260547 11.6967187,16.2243164 C14.5763672,17.0776172 16.7772656,17.5030078 18.3373242,17.5030078 C19.3541602,17.5030078 20.1,17.3223633 20.5822266,16.9616016 C20.6237109,16.9306055 20.6541211,16.8926953 20.6918555,16.8593555 C20.7311719,16.8550195 20.7698437,16.8595898 20.8092773,16.8474609 C21.9140625,16.5075586 25.0451953,15.6250195 26.25,15.6250195 C27.2692969,15.6250195 28.3422656,15.9344531 28.657207,16.5161133 C28.2214453,16.7211914 27.6708984,16.9921875 27.0410156,17.3010352 Z"></path>
                                <path d="M19.5605273,11.0687109 C19.6814063,11.1895898 19.8413086,11.25 19.9999805,11.25 C20.1586523,11.25 20.3186133,11.1895898 20.4394336,11.0687109 L25.1513672,6.40136719 C25.8593555,5.69273438 26.25,4.75160156 26.25,3.75 C26.25,1.68210938 24.5678906,0 22.5,0 C21.5625,0 20.6823633,0.34546875 19.9999805,0.965566406 C19.3176562,0.34546875 18.4375195,0 17.5000195,0 C15.4321289,0 13.7500195,1.68210938 13.7500195,3.75 C13.7500195,4.75160156 14.1406055,5.69273438 14.8511133,6.40318359 L19.5605273,11.0687109 Z M17.5000195,1.24998047 C18.2898047,1.24998047 19.0173633,1.61988281 19.4983008,2.26558594 C19.7351367,2.58175781 20.2648828,2.58175781 20.5017188,2.26558594 C20.9826563,1.61982422 21.7102148,1.24998047 22.5,1.24998047 C23.8781836,1.24998047 25.0000195,2.37117187 25.0000195,3.75 C25.0000195,4.41773438 24.7399805,5.04515625 24.2700586,5.51572266 L20.0000391,9.74548828 L15.7324219,5.51759766 C15.2600391,5.04515625 15,4.41773437 15,3.75 C15,2.37123047 16.1218359,1.24998047 17.5000195,1.24998047 Z"></path>
                            </g>
                        </g>
                    </g>
                </g>
            </g>
        </g>
    </g>
</svg>