<?xml version="1.0" encoding="UTF-8"?>
<svg width="36px" height="36px" viewBox="0 0 36 36" version="1.1" xmlns="http://www.w3.org/2000/svg" xmlns:xlink="http://www.w3.org/1999/xlink">
    <title>Group 26</title>
    <defs>
        <rect id="path-1" x="0" y="0" width="36" height="36"></rect>
    </defs>
    <g id="Desktop" stroke="none" stroke-width="1" fill="none" fill-rule="evenodd">
        <g id="Storitve-nivo-1" transform="translate(-492.000000, -344.000000)">
            <g id="Group-23" transform="translate(460.000000, 138.176624)">
                <g id="Group-12" transform="translate(32.000000, 61.823376)">
                    <g id="Group-26" transform="translate(0.000000, 144.000000)">
                        <mask id="mask-2" fill="white">
                            <use xlink:href="#path-1"></use>
                        </mask>
                        <use id="Mask" fill-opacity="0" fill="#F0F2F4" xlink:href="#path-1"></use>
                        <g id="secure-shield" mask="url(#mask-2)" fill="#005DAC" fill-rule="nonzero">
                            <g transform="translate(6.000000, 4.000000)">
                                <path d="M24.2826289,5.00766846 C20.2925801,3.91439111 16.279082,2.21205713 12.676002,0.0847485352 C12.4846133,-0.0282495117 12.2471191,-0.0282495117 12.0557871,0.0847485352 C8.34877148,2.27317236 4.55215039,3.88340869 0.448820312,5.00766846 C0.183742187,5.0802251 0,5.32117432 0,5.59605127 L0,11.8291255 C0,18.247811 2.96111523,22.4965376 5.44525977,24.9304419 C8.11960352,27.5509204 11.2348379,29.0000708 12.3658945,29.0000708 C13.4968379,29.0000708 16.6120723,27.5509204 19.286416,24.9304419 C21.7705039,22.4965942 24.7314492,18.2478677 24.7314492,11.8291255 L24.7314492,5.59599463 C24.7314492,5.32117432 24.547707,5.0802251 24.2826289,5.00766846 Z M23.5114102,11.8290688 C23.5114102,17.8240825 20.7495566,21.7886431 18.432502,24.0589126 C15.8026211,26.6357778 12.9908105,27.7799185 12.3658945,27.7799185 C11.7409785,27.7799185 8.92899805,26.6357778 6.29906055,24.0589126 C3.9820625,21.7885864 1.2200957,17.8240825 1.2200957,11.8290688 L1.2200957,6.05908838 C5.14404492,4.94496729 8.79838477,3.39012549 12.3660078,1.31690869 C15.8445352,3.33512744 19.6812012,4.96728369 23.5114102,6.05886182 L23.5114102,11.8290688 Z" id="Shape"></path>
                                <path d="M6.99726953,5.99082227 C6.87379297,5.67731641 6.51961914,5.52331055 6.20605664,5.64684375 C5.11629102,6.07623633 3.99775195,6.47147461 2.88153516,6.82162695 C2.62716211,6.90149023 2.45406836,7.13711523 2.45406836,7.40366602 L2.45406836,9.75940625 C2.45406836,10.0963047 2.72724609,10.3694258 3.06408789,10.3694258 C3.40092969,10.3694258 3.67410742,10.0963047 3.67410742,9.75940625 L3.67410742,7.84948438 C4.67545703,7.5255 5.67573047,7.16713477 6.65329102,6.78192188 C6.96679687,6.65850195 7.12080273,6.30432813 6.99726953,5.99082227 Z" id="Path"></path>
                                <path d="M8.15608008,6.10653906 C8.23792578,6.10653906 8.32101758,6.09005664 8.40071094,6.0552793 L8.41192578,6.0504082 C8.72056055,5.91515039 8.85955664,5.55587891 8.72429883,5.24735742 C8.58892773,4.93872266 8.22761719,4.79910352 7.91932227,4.93424805 L7.9094668,4.93849609 C7.60066211,5.07335742 7.46121289,5.4323457 7.59607422,5.74103711 C7.6961582,5.97020508 7.92073828,6.10653906 8.15608008,6.10653906 Z" id="Path"></path>
                                <path d="M19.6725352,19.6703262 C19.3906348,19.4860742 19.0126152,19.5653145 18.8281367,19.8473281 C18.3254512,20.6167344 17.735709,21.3535156 17.0750527,22.036998 C16.5317559,22.5989863 15.9430332,23.1227988 15.3252539,23.5937656 C15.0574004,23.7980117 15.0058574,24.1807891 15.2100469,24.4487559 C15.3301816,24.6061602 15.5118281,24.6889688 15.6955703,24.6889688 C15.8245977,24.6889688 15.9545879,24.6482441 16.0650371,24.5639629 C16.7314141,24.0558398 17.3663555,23.4909629 17.9521328,22.8850215 C18.6664277,22.1462012 19.3047676,21.3487012 19.8495371,20.514668 C20.0339023,20.2325977 19.9545488,19.8545781 19.6725352,19.6703262 Z" id="Path"></path>
                                <path d="M13.9085586,24.5504824 L13.8735547,24.5710996 C13.5820254,24.7399453 13.4823945,25.1130937 13.6511836,25.404623 C13.7642949,25.6000332 13.9690508,25.709123 14.1796973,25.709123 C14.2833496,25.709123 14.3885879,25.6826719 14.484707,25.6268809 L14.5250918,25.6031484 C14.8158281,25.4328867 14.9134766,25.0592285 14.7432148,24.7684922 C14.5728398,24.4778691 14.199125,24.3803906 13.9085586,24.5504824 Z" id="Path"></path>
                                <path d="M8.24625195,13.2549824 C7.8716875,12.8803613 7.3735332,12.6741895 6.8437168,12.6741895 C6.31390039,12.6741895 5.81568945,12.880418 5.44095508,13.2549824 C4.66764062,14.0284668 4.66764062,15.2870215 5.44095508,16.0604492 L9.04307227,19.6624531 C9.41769336,20.0369609 9.91584766,20.2431895 10.4457207,20.2431895 C10.9755937,20.2431895 11.473748,20.0369609 11.8484258,19.6623398 L19.3680918,12.1426172 C20.1413496,11.3689629 20.1413496,10.1105781 19.3679785,9.33737695 C18.9933574,8.96275586 18.4952031,8.75658398 17.9652734,8.75658398 C17.4354004,8.75658398 16.9372461,8.9628125 16.5625684,9.33737695 L10.4456641,15.4542813 L8.24625195,13.2549824 Z M17.4253184,10.200127 C17.5694687,10.0559766 17.7613105,9.97662305 17.9653301,9.97662305 C18.1694629,9.97662305 18.3611348,10.0559766 18.5053984,10.200127 C18.8030449,10.4977734 18.8030449,10.9822773 18.5052852,11.2800371 L10.9857324,18.7996465 C10.841582,18.9437969 10.6497402,19.0231504 10.4457207,19.0231504 C10.2417012,19.0231504 10.0498594,18.9437969 9.90565234,18.7996465 L6.30364844,15.1977559 C6.00588867,14.8999961 6.00588867,14.4154922 6.30353516,14.1178457 C6.44774219,13.9736953 6.63958398,13.8942285 6.84366016,13.8942285 C7.04773633,13.8942285 7.23946484,13.973582 7.38361523,14.1177324 L10.0142891,16.7484629 C10.1287598,16.8628203 10.2838418,16.9271074 10.4456641,16.9271074 C10.6074863,16.9271074 10.7625684,16.862877 10.8769258,16.7484629 L17.4253184,10.200127 Z" id="Shape"></path>
                            </g>
                        </g>
                    </g>
                </g>
            </g>
        </g>
    </g>
</svg>