<?xml version="1.0" encoding="UTF-8"?>
<svg width="36px" height="36px" viewBox="0 0 36 36" version="1.1" xmlns="http://www.w3.org/2000/svg" xmlns:xlink="http://www.w3.org/1999/xlink">
    <title>Bitmap</title>
    <defs>
        <rect id="path-1" x="0" y="0" width="36" height="36"></rect>
    </defs>
    <g id="Desktop" stroke="none" stroke-width="1" fill="none" fill-rule="evenodd">
        <g id="Storitve-nivo-1" transform="translate(-492.000000, -248.000000)">
            <g id="Group-23" transform="translate(460.000000, 138.176624)">
                <g id="Group-12" transform="translate(32.000000, 61.823376)">
                    <g id="Group-25" transform="translate(0.000000, 48.000000)">
                        <mask id="mask-2" fill="white">
                            <use xlink:href="#path-1"></use>
                        </mask>
                        <g id="Mask" style="mix-blend-mode: darken;"></g>
                        <g id="storitve" mask="url(#mask-2)" fill="#005DAC" fill-rule="nonzero">
                            <g transform="translate(3.000000, 3.000000)" id="Combined-Shape">
                                <path d="M13.6743688,8.06794229 C13.8334196,8.19277943 13.9186065,8.38559687 13.9013805,8.58352041 L13.7270152,10.5873066 L13.793392,10.6167126 C14.1112474,10.7363346 14.4648999,10.7361989 14.7826247,10.616354 L14.8477851,10.5873066 L14.6872574,8.59378229 C14.674485,8.43437359 14.7280345,8.27820161 14.8332751,8.15838297 L14.9025053,8.09111913 C15.0517684,7.96787137 15.2522572,7.92026606 15.443535,7.96234829 C17.3905531,8.39103177 18.55951,9.81972059 18.55951,11.7725182 C18.55951,13.1299667 17.7807499,14.4546483 16.5635024,15.2112698 L16.4340905,15.2862163 L16.4340905,22.5625095 L16.5564149,22.61351 C17.9447928,23.2281807 18.8028167,24.4925749 18.8745802,26.0389769 L18.8794686,26.2515634 C18.8616855,28.1185113 17.7465607,29.5868232 15.9719691,30.0803229 C15.7772844,30.1346558 15.5671651,30.0933514 15.4095257,29.9695614 C15.250475,29.8447243 15.1652881,29.6519068 15.1825141,29.4539844 L15.3559061,27.449182 L15.2905191,27.4206278 C14.9725883,27.3011306 14.6188224,27.3013165 14.3012201,27.4211495 L14.2351363,27.4501499 L14.3958808,29.4435735 C14.4086589,29.6048148 14.353589,29.7625041 14.2460194,29.882547 L14.1753004,29.9497824 C14.0230511,30.0729395 13.8194011,30.1182194 13.6269088,30.0720554 C11.7047991,29.6105449 10.5502364,28.1724616 10.5502424,26.2377881 C10.5356521,24.8332056 11.3494568,23.5556225 12.533027,22.8105633 L12.6565736,22.7367224 L12.6565736,15.4884969 L12.5352604,15.4381956 C11.1445407,14.8254571 10.2919597,13.5638598 10.2204511,12.0139195 L10.2155641,11.8008106 C10.2155641,9.92921128 11.3282925,8.45297288 13.1119106,7.95716721 C13.3066628,7.90291108 13.5166817,7.9441756 13.6743688,8.06794229 Z M15.9985582,9.43072633 L16.1156513,10.8599062 C16.1286972,11.022412 16.0729372,11.1813268 15.9641025,11.3016541 L15.8843734,11.3753678 L15.8760238,11.3816985 C15.0018424,12.0346677 13.7994228,12.0773142 12.8813653,11.5061269 L12.7038797,11.3853476 C12.5340139,11.2617941 12.4414411,11.0622916 12.4592235,10.8566032 L12.5743064,9.52170419 L12.449904,9.61517924 C11.865113,10.0832121 11.5144187,10.7790236 11.4639261,11.5941723 L11.4575953,11.8003829 C11.4575953,13.1065713 12.2218174,14.1351743 13.4585711,14.4934684 C13.7197823,14.5699463 13.8989102,14.8033676 13.8973404,15.0678135 L13.8973379,23.0938428 C13.8989107,23.327441 13.7597573,23.5397368 13.5417204,23.6384507 C12.5528224,24.0832311 11.7823261,25.119677 11.793732,26.2319268 C11.793732,27.2296671 12.1975812,28.0160212 12.9421028,28.4978362 L13.0824274,28.581566 L12.9690155,27.1772081 C12.9554447,27.0100414 13.0148468,26.8468874 13.1297969,26.7254129 L13.2052934,26.6578311 C14.0797183,26.0032405 15.283315,25.9595602 16.2027194,26.530965 L16.3807856,26.6521023 C16.5500542,26.7759752 16.6422647,26.9752471 16.6244149,27.1804293 L16.5076471,28.5147844 L16.6334128,28.4226012 C17.2185371,27.956217 17.5734214,27.262892 17.6316506,26.4514287 L17.6399892,26.2461647 C17.6399892,24.9444161 16.8741019,23.91591 15.6375234,23.557503 C15.3758654,23.481672 15.1955323,23.2486928 15.1955323,22.983256 L15.1955323,14.9286127 C15.1955323,14.6959266 15.3344061,14.4849608 15.5510331,14.3862031 C16.5919673,13.911819 17.3197074,12.834449 17.3197074,11.7727015 C17.3197074,10.7683183 16.9078674,9.98505073 16.1491467,9.5170195 L15.9985582,9.43072633 Z M16.5291908,0 C16.8476311,0 17.1156575,0.233418253 17.1465298,0.541497786 L17.3971009,3.03807984 L17.748962,3.13138433 C18.6007582,3.37219578 19.4216547,3.70411794 20.1962349,4.12093123 L20.5126087,4.29822 L22.5166438,2.70625531 C22.7351332,2.53262345 23.0430016,2.52596601 23.2673355,2.67884992 L23.3472073,2.74364537 L26.2443068,5.52422233 C26.472644,5.74327651 26.489756,6.09501238 26.2833479,6.33385678 L24.6288729,8.24898199 L24.8116698,8.54681562 C25.2490293,9.29027497 25.5953188,10.0797023 25.8435589,10.8992986 L25.9374056,11.234798 L28.540712,11.4763641 C28.8258193,11.5030626 29.050809,11.7148393 29.0918347,11.9821718 L29.0985352,12.0731627 L29.0985352,16.0147267 C29.1003782,16.3241922 28.8575944,16.5824568 28.5405911,16.6121421 L25.9374056,16.8531648 L25.8415651,17.189159 C25.5906015,18.007264 25.2445096,18.7957259 24.8098487,19.5396939 L24.6279051,19.8360772 L26.2835813,21.7548579 C26.4778845,21.9798374 26.4730401,22.3026462 26.2858373,22.521339 L26.2167054,22.5901034 L24.0184427,24.4545087 C23.8875442,24.5657743 23.7143562,24.6184053 23.5412719,24.5998999 C23.367895,24.5813632 23.2104106,24.4931557 23.1078809,24.3565373 L19.8385333,20.0077777 C19.6584658,19.7683339 19.686174,19.4378707 19.9033386,19.2294634 C22.8880117,16.3653906 22.8880117,11.7234053 19.9033361,8.85902917 C16.9160143,5.99223393 12.070968,5.99223393 9.08364783,8.85902755 C6.09905865,11.7233208 6.0991362,16.3653088 9.08364697,19.2294666 C9.29803768,19.4352118 9.32821349,19.760636 9.15458348,19.9998062 L5.99625601,24.348848 C5.89482125,24.4884446 5.73686313,24.5794729 5.5617851,24.5998159 C5.38702311,24.6197167 5.21172977,24.5671256 5.07958469,24.4548049 L2.88202392,22.5895594 C2.62937893,22.3749512 2.59951256,22.0044308 2.81519635,21.7546329 L4.47050184,19.8360772 L4.28956017,19.539705 C3.85511748,18.7957676 3.50916114,18.0071905 3.25835402,17.189114 L3.1619692,16.8531648 L0.557893859,16.6121311 C0.272652517,16.5854266 0.0474622911,16.3735702 0.0066265596,16.1063421 L7.20566331e-06,16.0153934 L7.20566331e-06,12.0741435 C-0.00152410132,11.7645284 0.241190895,11.5065279 0.558196478,11.4768422 L3.15906565,11.234798 L3.25382868,10.899377 C3.50230903,10.0795034 3.84887818,9.28991861 4.28654532,8.54649924 L4.46856614,8.24898199 L2.81549058,6.33390788 C2.63199863,6.12158073 2.62510702,5.82011314 2.78615494,5.60168125 L2.85440316,5.52399787 L5.75164656,2.74309951 C5.97771706,2.5264428 6.33662174,2.51047474 6.58215984,2.70577378 L8.58579826,4.29822 L8.90272788,4.1208305 C9.67760302,3.70383694 10.4985387,3.37186789 11.3500336,3.13125735 L11.7013061,3.03807984 L11.9525174,0.541516594 C11.9803079,0.264190212 12.200016,0.0474228765 12.4758355,0.00684267318 L12.5696672,0 L16.5291908,0 Z M15.9656513,1.19916563 L13.1327556,1.19916563 L12.8935342,3.57894626 C12.8708124,3.80589506 12.7179075,3.99697873 12.504385,4.07857455 L12.4093669,4.10662621 C11.1500935,4.37357365 9.95190653,4.85831964 8.87360176,5.53703167 C8.64701901,5.67974426 8.35072873,5.66383716 8.14178268,5.49754129 L6.22714883,3.97592608 L4.13175448,5.98711752 L5.7114412,7.81786361 C5.86558004,7.99639826 5.89748646,8.2421563 5.80085007,8.44911701 L5.75154611,8.53513001 C5.03988738,9.56476846 4.53574755,10.7125797 4.26530574,11.9190974 C4.20875336,12.1745209 3.98769082,12.3638427 3.7199098,12.38882 L1.23981993,12.617855 L1.23981993,15.4701077 L3.72001584,15.6997459 C3.95288075,15.7215467 4.15041288,15.8683715 4.23412466,16.0744109 L4.26280372,16.166147 C4.5409527,17.3734162 5.04570775,18.5222171 5.75246271,19.5562802 C5.9031567,19.7773486 5.88621975,20.067523 5.71094452,20.2708611 L4.15401502,22.0737454 L5.37834475,23.112248 L7.84732903,19.7102567 L7.7244379,19.5758075 C4.80147115,16.2835481 4.91741376,11.367185 8.01272055,8.20316915 L8.21005607,8.00773039 C11.6752349,4.68222603 17.3117466,4.68222603 20.7769892,8.00772968 C24.0615818,11.1598683 24.2463837,16.2093982 21.2670403,19.5706961 L21.1436466,19.7044496 L23.7113515,23.119023 L24.9434241,22.0737454 L23.3874029,20.2711777 C23.233954,20.0936876 23.2016867,19.8490879 23.2970089,19.6425567 L23.3456915,19.5566808 C24.0523953,18.522082 24.5567214,17.3732283 24.8338851,16.1664436 C24.891708,15.9122977 25.1121954,15.7243246 25.3786377,15.6997353 L27.8576191,15.4701077 L27.8576191,12.617855 L25.3782833,12.3888114 C25.1443886,12.3669443 24.9462914,12.2190018 24.8631799,12.0116944 L24.8348315,11.9194083 C24.5638864,10.7120478 24.0596091,9.56407077 23.3479548,8.53486327 C23.1954381,8.31376965 23.2116537,8.02193879 23.3875879,7.81788667 L24.9666524,5.98808537 L22.8702902,3.97592608 L20.9572793,5.49772482 C20.7744515,5.64328757 20.5247438,5.67366308 20.3133974,5.58338669 L20.2254758,5.53729403 C19.1468145,4.85835756 17.9485744,4.37349339 16.689321,4.10660356 C16.4274211,4.05081668 16.2314767,3.83825691 16.2055192,3.57898856 L15.9656513,1.19916563 Z"></path>
                            </g>
                        </g>
                    </g>
                </g>
            </g>
        </g>
    </g>
</svg>