<?xml version="1.0" encoding="UTF-8"?>
<svg width="36px" height="36px" viewBox="0 0 36 36" version="1.1" xmlns="http://www.w3.org/2000/svg" xmlns:xlink="http://www.w3.org/1999/xlink">
    <title>Bitmap</title>
    <defs>
        <rect id="path-1" x="0" y="0" width="36" height="36"></rect>
    </defs>
    <g id="Desktop" stroke="none" stroke-width="1" fill="none" fill-rule="evenodd">
        <g id="Storitve-nivo-1" transform="translate(-492.000000, -392.000000)">
            <g id="Group-23" transform="translate(460.000000, 138.176624)">
                <g id="Group-12" transform="translate(32.000000, 61.823376)">
                    <g id="Bitmap" transform="translate(0.000000, 192.000000)">
                        <mask id="mask-2" fill="white">
                            <use xlink:href="#path-1"></use>
                        </mask>
                        <use id="Mask" fill-opacity="0" fill="#F0F2F4" style="mix-blend-mode: darken;" xlink:href="#path-1"></use>
                        <g id="prihranki_5f57699ce817e" mask="url(#mask-2)" fill="#005DAC" fill-rule="nonzero">
                            <g transform="translate(3.000000, 5.000000)" id="Shape">
                                <path d="M19.2475117,0 C17.269751,0 15.6515832,1.6181678 15.6515832,3.59592845 C13.3382026,3.59592845 11.4563334,5.47779767 11.4563334,7.79117831 C11.4563334,10.1045589 13.3382026,11.9864282 15.6515832,11.9864282 C17.9649639,11.9864282 19.8468331,10.1045589 19.8468331,7.79117831 C19.8468331,7.5754226 19.8228602,7.36566011 19.7928942,7.15589762 C21.5189398,6.8921962 22.8434401,5.39389268 22.8434401,3.59592845 C22.8434401,1.6181678 21.2252723,0 19.2475117,0 Z M19.2475117,1.19864282 C20.5780052,1.19864282 21.6447973,2.26543492 21.6447973,3.59592845 C21.6447973,4.86648984 20.6679034,5.88533623 19.4153217,5.97523444 C18.9118917,4.93241519 17.9889367,4.1293245 16.8682057,3.78171809 C16.8622125,3.71579273 16.850226,3.65586059 16.850226,3.59592845 C16.850226,2.26543492 17.9170182,1.19864282 19.2475117,1.19864282 Z M15.6515832,4.79457127 C17.3117035,4.79457127 18.6481903,6.13105801 18.6481903,7.79117831 C18.6481903,9.45129861 17.3117035,10.7877854 15.6515832,10.7877854 C13.9914629,10.7877854 12.6549762,9.45129861 12.6549762,7.79117831 C12.6549762,6.13105801 13.9914629,4.79457127 15.6515832,4.79457127 Z M8.14208598,11.9864282 C6.44001318,11.9864282 5.66089535,12.3999599 4.80985895,12.7355799 C3.18569793,13.3768538 0.404846593,14.7193338 0.404846593,14.7193338 C0.183097672,14.7912524 0.0332673201,14.9890284 0.00330124966,15.2227638 C-0.0206716067,15.4564991 0.0872062469,15.678248 0.284982312,15.7981123 C0.482758376,15.9179766 0.734473368,15.9119834 0.926256219,15.7861259 C0.926256219,15.7861259 3.7250872,14.4436459 5.25335679,13.8383313 C6.18829819,13.466752 6.61381639,13.185071 8.13609276,13.185071 C11.5042791,13.185071 11.4023944,14.7013542 12.7808337,15.5284177 C13.2782704,15.8280784 14.0573883,16.0558205 14.9323975,16.2775695 C15.0043161,16.319522 15.0882211,16.3434948 15.1781193,16.349488 C15.1841125,16.349488 15.1901057,16.349488 15.196099,16.349488 C16.1849793,16.5892166 17.239785,16.7809994 18.0428756,16.7809994 C18.3964753,16.7809994 18.696136,16.8229519 18.9418578,16.8768909 C18.9538442,16.8768909 18.9658306,16.8768909 18.977817,16.8768909 C19.2055592,16.9308298 19.3793624,17.0027484 19.5052199,17.0806601 C19.7689213,17.2484701 19.8408399,17.3803208 19.8408399,17.6799816 C19.8408399,18.027588 19.7689213,18.141459 19.5052199,18.2972826 C19.2415185,18.4531062 18.7380885,18.5789637 18.0488689,18.5789637 L14.5668115,18.5789637 C13.098474,18.5789637 11.024822,17.9976219 11.024822,17.9976219 C10.7011884,17.9017305 10.3715616,18.0875201 10.2756702,18.4111537 C10.1797788,18.7347872 10.3655684,19.064414 10.689202,19.1603054 C10.689202,19.1603054 12.8048065,19.7776065 14.5668115,19.7776065 L18.0488689,19.7776065 C18.8579528,19.7776065 19.5471724,19.6577422 20.1105345,19.3281154 C20.2723513,19.232224 20.4161884,19.1123597 20.5420459,18.9745158 C20.5959848,18.9565362 20.6439306,18.9325633 20.6918763,18.9025972 L26.0857689,15.2707095 C27.0207103,14.7133406 27.6679775,14.5695034 28.0515432,14.5754967 C28.4351089,14.5814899 28.5669596,14.6953609 28.6868239,14.8571777 C28.8666203,15.0909131 28.8786067,15.2227638 28.7587424,15.4924584 C28.6388781,15.762153 28.327231,16.151712 27.7458892,16.5592505 C27.0267036,17.0686737 19.1096678,22.3307157 18.1747264,22.8701049 C17.4855067,23.2656571 16.934131,23.7031617 16.3048436,23.8829581 C15.6755561,24.0627546 14.9144179,24.0507681 13.6798158,23.4514467 C12.8587455,23.0558946 9.38867451,21.2399507 8.26794347,20.658609 C7.64464921,20.3349754 7.13522601,20.1611722 6.60182996,20.1911383 C6.0684339,20.2211043 5.59496999,20.4668261 5.12150608,20.77248 L3.50933149,21.8212925 C3.23364364,22.0010889 3.14973864,22.3786614 3.32953507,22.6543492 C3.50933149,22.9300371 3.88690398,23.0139421 4.16259182,22.8341457 L5.77476641,21.7853332 C6.1942914,21.5156386 6.42802675,21.4017675 6.65576888,21.3897811 C6.88351102,21.3777946 7.18916494,21.4497132 7.72256099,21.7254011 C8.83729881,22.3007496 12.2534308,24.0987138 13.152413,24.5362185 C14.5668115,25.2254381 15.7055222,25.2853702 16.6164907,25.0216688 C17.5274592,24.7579674 18.1807196,24.242551 18.7680546,23.8949446 C20.0146431,23.1697657 27.5301335,18.1654319 28.4291157,17.5301512 C29.1183353,17.0447009 29.6037856,16.5352777 29.8555006,15.9359563 C30.1072156,15.3366348 30.0293038,14.641422 29.6277585,14.1200124 C29.3161113,13.7124738 28.7647356,13.3828471 28.0575364,13.3708606 C27.5600996,13.3588742 26.954785,13.5446638 26.2955314,13.8383313 C26.2715586,13.718467 26.3314907,13.5806231 26.2775518,13.466752 C26.0737825,13.0232542 25.6063118,12.7235935 25.0968886,12.6217089 C24.4316419,12.4898582 23.6705037,12.6936274 22.9273451,13.0352406 C22.8734062,12.8734239 22.8314537,12.6936274 22.7235758,12.5677699 C22.3999423,12.1842042 21.9384648,12.0583467 21.5069534,12.0223875 C20.6499238,11.9564621 19.7569349,12.2381432 19.1096678,12.6217089 C18.2106856,13.1551049 15.5317189,14.8451913 15.14216,15.0909131 C14.3390693,14.8751574 13.6138904,14.6174492 13.3981347,14.4915917 C12.8587455,14.1679581 11.9178109,11.9864282 8.14208598,11.9864282 Z M21.4170552,13.2210303 C21.6567837,13.2390099 21.776648,13.3109285 21.8126073,13.352881 C21.8365802,13.3828471 21.8845259,13.4307928 21.8665462,13.5986028 C21.8665462,13.604596 21.8665462,13.6105892 21.8665462,13.6165824 L18.9058985,15.6422888 C18.6362038,15.6003363 18.3545228,15.5883498 18.0428756,15.5883498 C17.7252353,15.5883498 17.2937239,15.5344109 16.8262532,15.4564991 C17.8690724,14.8032388 19.1576135,14.0001481 19.7269688,13.6585349 C20.1345074,13.4128131 20.937598,13.185071 21.4170552,13.2210303 Z M24.491574,13.7843924 C24.6533908,13.772406 24.7792483,13.7604195 24.8871261,13.7843924 C25.1328479,13.8323381 25.162814,13.886277 25.2047665,13.970182 C25.2347325,14.0361074 25.246719,14.1979242 25.2227461,14.4016934 L20.991537,17.2484701 C20.8896523,16.8169587 20.6379373,16.433393 20.2783445,16.1636984 L22.7475487,14.4616256 C22.7775148,14.4376527 22.8134741,14.4136799 22.8434401,14.389707 C22.8734062,14.3657342 22.9093655,14.3417613 22.9393316,14.3177884 C23.4727276,13.9821685 24.0660558,13.8263449 24.491574,13.7843924 Z"></path>
                            </g>
                        </g>
                    </g>
                </g>
            </g>
        </g>
    </g>
</svg>