<?xml version="1.0" encoding="UTF-8"?>
<svg width="36px" height="36px" viewBox="0 0 36 36" version="1.1" xmlns="http://www.w3.org/2000/svg" xmlns:xlink="http://www.w3.org/1999/xlink">
    <title>Bitmap</title>
    <defs>
        <rect id="path-1" x="0" y="0" width="36" height="36"></rect>
    </defs>
    <g id="Desktop" stroke="none" stroke-width="1" fill="none" fill-rule="evenodd">
        <g id="Storitve-nivo-1" transform="translate(-492.000000, -296.000000)">
            <g id="Group-23" transform="translate(460.000000, 138.176624)">
                <g id="Group-12" transform="translate(32.000000, 61.823376)">
                    <g id="Bitmap" transform="translate(0.000000, 96.000000)">
                        <mask id="mask-2" fill="white">
                            <use xlink:href="#path-1"></use>
                        </mask>
                        <use id="Mask" fill-opacity="0" fill="#F0F2F4" xlink:href="#path-1"></use>
                        <g id="control" mask="url(#mask-2)" fill="#005DAC" fill-rule="nonzero">
                            <g transform="translate(6.000000, 6.000000)" id="Shape">
                                <path d="M23.296875,2.8125 L19.6636406,2.8125 C19.3369688,1.20975 17.9165625,0 16.21875,0 C14.5209375,0 13.1005312,1.20975 12.7738594,2.8125 L0.703125,2.8125 C0.3148125,2.8125 0,3.1273125 0,3.515625 C0,3.9039375 0.3148125,4.21875 0.703125,4.21875 L12.7738594,4.21875 C13.1004844,5.8215 14.5209375,7.03125 16.21875,7.03125 C17.9165625,7.03125 19.3369688,5.8215 19.6636406,4.21875 L23.296875,4.21875 C23.6851875,4.21875 24,3.9039375 24,3.515625 C24,3.1273125 23.6851875,2.8125 23.296875,2.8125 Z M16.21875,5.625 C15.0558281,5.625 14.1097031,4.6790625 14.109375,3.51623438 C14.109375,3.51604687 14.1094219,3.51585938 14.1094219,3.515625 C14.1094219,3.51539062 14.109375,3.51520313 14.109375,3.51501562 C14.1097031,2.3521875 15.0558281,1.40625 16.21875,1.40625 C17.3818594,1.40625 18.328125,2.35251562 18.328125,3.515625 C18.328125,4.67873438 17.3818594,5.625 16.21875,5.625 Z"></path>
                                <path d="M23.296875,11.296875 L11.2261406,11.296875 C10.8995156,9.694125 9.4790625,8.484375 7.78125,8.484375 C6.0834375,8.484375 4.66303125,9.694125 4.33635937,11.296875 L0.703125,11.296875 C0.3148125,11.296875 0,11.6116875 0,12 C0,12.3883125 0.3148125,12.703125 0.703125,12.703125 L4.33635937,12.703125 C4.66298438,14.305875 6.0834375,15.515625 7.78125,15.515625 C9.4790625,15.515625 10.8994688,14.305875 11.2261406,12.703125 L23.296875,12.703125 C23.6851875,12.703125 24,12.3883125 24,12 C24,11.6116875 23.6851875,11.296875 23.296875,11.296875 Z M7.78125,14.109375 C6.61832812,14.109375 5.67220313,13.1634375 5.671875,12.0006094 C5.671875,12.0004219 5.67192188,12.0002344 5.67192188,12 C5.67192188,11.9997656 5.671875,11.9995781 5.671875,11.9993906 C5.67220313,10.8365625 6.61832812,9.890625 7.78125,9.890625 C8.94435937,9.890625 9.890625,10.8368906 9.890625,12 C9.890625,13.1631094 8.94435937,14.109375 7.78125,14.109375 Z"></path>
                                <path d="M23.296875,19.78125 L19.6636406,19.78125 C19.3370156,18.1785 17.9165625,16.96875 16.21875,16.96875 C14.5209375,16.96875 13.1005312,18.1785 12.7738594,19.78125 L0.703125,19.78125 C0.3148125,19.78125 0,20.0960625 0,20.484375 C0,20.8726875 0.3148125,21.1875 0.703125,21.1875 L12.7738594,21.1875 C13.1004844,22.79025 14.5209375,24 16.21875,24 C17.9165625,24 19.3369688,22.79025 19.6636406,21.1875 L23.296875,21.1875 C23.6851875,21.1875 24,20.8726875 24,20.484375 C24,20.0960625 23.6851875,19.78125 23.296875,19.78125 Z M16.21875,22.59375 C15.0558281,22.59375 14.1097031,21.6478125 14.109375,20.4849844 C14.109375,20.4847969 14.1094219,20.4846094 14.1094219,20.484375 C14.1094219,20.4841406 14.109375,20.4839531 14.109375,20.4837656 C14.1097031,19.3209375 15.0558281,18.375 16.21875,18.375 C17.3818594,18.375 18.328125,19.3212656 18.328125,20.484375 C18.328125,21.6474844 17.3818594,22.59375 16.21875,22.59375 Z"></path>
                            </g>
                        </g>
                    </g>
                </g>
            </g>
        </g>
    </g>
</svg>