<?xml version="1.0" encoding="UTF-8"?>
<svg width="36px" height="36px" viewBox="0 0 36 36" version="1.1" xmlns="http://www.w3.org/2000/svg" xmlns:xlink="http://www.w3.org/1999/xlink">
    <title>Group 25</title>
    <defs>
        <rect id="path-1" x="0" y="0" width="36" height="36"></rect>
    </defs>
    <g id="Desktop" stroke="none" stroke-width="1" fill="none" fill-rule="evenodd">
        <g id="Klub-" transform="translate(-584.000000, -164.000000)">
            <g id="Group-23" transform="translate(552.000000, 138.264935)">
                <g id="Group-31" transform="translate(32.000000, 25.735065)">
                    <mask id="mask-2" fill="white">
                        <use xlink:href="#path-1"></use>
                    </mask>
                    <g id="Mask"></g>
                    <g id="favorites" mask="url(#mask-2)" fill="#005DAC" fill-rule="nonzero">
                        <g transform="translate(5.000000, 6.000000)">
                            <path d="M23.9793255,10.0497207 C24.4501189,9.59081007 24.6163261,8.9172977 24.4132009,8.29202757 C24.2100249,7.66675743 23.679665,7.21962809 23.029055,7.12512409 L17.3400261,6.29845532 C17.228358,6.28225609 17.1318228,6.21212711 17.081854,6.1108692 L14.5376601,0.955805614 C14.246734,0.36623473 13.6575694,0 13.0001039,0 C12.3426384,0 11.7534738,0.36623473 11.4625477,0.955805614 L8.91835386,6.11091998 C8.86833428,6.21212711 8.77184981,6.28225609 8.66013095,6.2985061 L2.97120356,7.12512409 C2.32059356,7.21962809 1.79028445,7.66675743 1.58705769,8.29202757 C1.38383093,8.9172977 1.5500889,9.59081007 2.02093311,10.0497207 L6.13751913,14.0624082 C6.21831218,14.1412207 6.25523018,14.2547169 6.23613641,14.3659788 L5.26433469,20.031953 C5.15322521,20.6799732 5.41454577,21.3225089 5.9464291,21.7089546 C6.47831243,22.0955019 7.17035997,22.1454199 7.7522121,21.8395641 L12.8405491,19.1644561 C12.9404867,19.1118974 13.0597719,19.1118974 13.1597603,19.1644561 L18.2481481,21.8395641 C18.501242,21.9726111 18.7751056,22.0383222 19.0476488,22.0383222 C19.4015945,22.0383222 19.7533058,21.9274158 20.0537787,21.7089038 C20.585662,21.3224074 20.8470334,20.6798208 20.7358731,20.0319022 L19.7640714,14.365928 C19.7450284,14.2546662 19.7818956,14.14117 19.8626887,14.0623574 L23.9793255,10.0497207 Z M18.4122224,14.597897 L19.3840242,20.2639728 C19.4165242,20.4535901 19.2994733,20.5617035 19.2476256,20.5993325 C19.1957271,20.6369106 19.0566879,20.7149615 18.886469,20.6253833 L13.7980812,17.9502752 C13.548288,17.8190055 13.2742721,17.7532945 13.0002055,17.7532945 C12.7261388,17.7532945 12.4520721,17.8190055 12.2023297,17.9502244 L7.11399273,20.6252817 C6.94367225,20.7148091 6.80468384,20.6368598 6.75283613,20.5992309 C6.70098843,20.561602 6.58388675,20.4534886 6.61643756,20.2638712 L7.58823929,14.597897 C7.68365735,14.0415878 7.49937201,13.4742591 7.09510209,13.080247 L2.97851607,9.06755957 C2.8407464,8.93319225 2.87192612,8.77693819 2.89178161,8.71600063 C2.91153554,8.65501229 2.97821138,8.51023481 3.16859047,8.48260978 L8.85746708,7.65594101 C9.41601059,7.5747925 9.89868684,7.22419841 10.1485308,6.71795963 L12.6927247,1.56284526 C12.7778849,1.39034119 12.9361195,1.37170445 13.0002562,1.37170445 C13.0642915,1.37170445 13.222526,1.39029041 13.307737,1.56284526 L13.307737,1.56289605 L15.8519309,6.71801042 C16.1017241,7.22424919 16.5843496,7.57484328 17.1428931,7.65599179 L22.8318712,8.48266056 C23.0222503,8.51028559 23.0888754,8.65506307 23.1086801,8.71605141 C23.1284848,8.77703975 23.1597153,8.93334459 23.0218949,9.06761035 L18.9053088,13.0802978 C18.5010897,13.4742591 18.3168044,14.0415878 18.4122224,14.597897 Z" id="Shape"></path>
                            <path d="M21.0124281,0.955450145 C20.7059122,0.732824929 20.2770641,0.800770307 20.0544389,1.10718467 L19.3263874,2.10920126 C19.1037622,2.41561562 19.1716568,2.84456526 19.4781219,3.06719047 C19.5999462,3.15560071 19.7409659,3.19820622 19.880716,3.19820622 C20.0928295,3.19820622 20.3019469,3.10014754 20.4361111,2.91550673 L21.1641626,1.91349014 C21.3867878,1.60702499 21.3188932,1.17807536 21.0124281,0.955450145 Z" id="Path"></path>
                            <path d="M6.67062121,2.10513876 L5.94256972,1.10312216 C5.71999529,0.796809366 5.29109643,0.728863987 4.98458051,0.951387641 C4.67816615,1.17401286 4.61022077,1.60296249 4.83284599,1.90937685 L5.56089748,2.91139345 C5.69511245,3.09618659 5.90422984,3.1941945 6.11639411,3.1941945 C6.25619503,3.1941945 6.39726548,3.15158899 6.51893747,3.06312797 C6.82535183,2.84055353 6.89329721,2.4116039 6.67062121,2.10513876 Z" id="Path"></path>
                            <path d="M2.51630468,15.3876985 C2.39925379,15.0275067 2.01235107,14.830323 1.65205775,14.9473739 L0.474083955,15.3301633 C0.113790637,15.4472142 -0.0832915854,15.8342185 0.0337593093,16.1944102 C0.127907838,16.4843207 0.396794817,16.6685552 0.685892754,16.6685552 C0.75612329,16.6685552 0.827572578,16.6576372 0.89800624,16.6347349 L2.07598004,16.2519454 C2.43622257,16.1348945 2.63335558,15.7479918 2.51630468,15.3876985 Z" id="Path"></path>
                            <path d="M13.0002562,23.0027098 C12.6214785,23.0027098 12.314404,23.3097843 12.314404,23.688562 L12.314404,24.9272195 C12.314404,25.3059972 12.6214785,25.6130717 13.0002562,25.6130717 C13.379034,25.6130717 13.6861085,25.3059972 13.6861085,24.9272195 L13.6861085,23.688562 C13.6861085,23.3097335 13.3790847,23.0027098 13.0002562,23.0027098 Z" id="Path"></path>
                            <path d="M25.5259207,15.3311281 L24.3479469,14.9483387 C23.987806,14.8313894 23.6007509,15.0284208 23.4837,15.3887141 C23.3666491,15.7490074 23.5637313,16.1359102 23.9240246,16.2529611 L25.1019984,16.6357505 C25.1724321,16.6586021 25.2438306,16.6694693 25.3140611,16.6694693 C25.6032099,16.6694693 25.8720968,16.4851839 25.9662454,16.1953243 C26.0832963,15.8350817 25.8861633,15.448179 25.5259207,15.3311281 Z" id="Path"></path>
                        </g>
                    </g>
                </g>
            </g>
        </g>
    </g>
</svg>