<?xml version="1.0" encoding="UTF-8"?>
<svg width="36px" height="36px" viewBox="0 0 36 36" version="1.1" xmlns="http://www.w3.org/2000/svg" xmlns:xlink="http://www.w3.org/1999/xlink">
    <title>Bitmap</title>
    <defs>
        <rect id="path-1" x="0" y="0" width="36" height="36"></rect>
    </defs>
    <g id="Desktop" stroke="none" stroke-width="1" fill="none" fill-rule="evenodd">
        <g id="Storitve-nivo-1" transform="translate(-492.000000, -440.000000)">
            <g id="Group-23" transform="translate(460.000000, 138.176624)">
                <g id="Group-12" transform="translate(32.000000, 61.823376)">
                    <g id="Bitmap" transform="translate(0.000000, 240.000000)">
                        <mask id="mask-2" fill="white">
                            <use xlink:href="#path-1"></use>
                        </mask>
                        <use id="Mask" fill-opacity="0" fill="#F0F2F4" xlink:href="#path-1"></use>
                        <g id="exchange-(2)" mask="url(#mask-2)" fill="#005DAC" fill-rule="nonzero">
                            <g transform="translate(3.000000, 3.000000)">
                                <path d="M27.2685352,15.6142383 C27.4979883,15.3860742 27.499043,15.0150586 27.2708789,14.7856055 C27.0427148,14.5561523 26.6716992,14.5550391 26.4422461,14.7832617 C26.212793,15.0114258 26.2117383,15.3824414 26.4399023,15.6118945 C26.6680664,15.8413477 27.0390234,15.8424023 27.2685352,15.6142383 L27.2685352,15.6142383 Z" id="Path"></path>
                                <path d="M3.57058594,9.00867188 C3.57275391,7.72728516 4.01982422,6.78919922 4.28613281,6.34412109 C4.45259766,6.06585938 4.36201172,5.70539063 4.08375,5.53886719 C3.80548828,5.37240234 3.44501953,5.46298828 3.27855469,5.74125 C2.95019531,6.28998047 2.3990625,7.44386719 2.39635739,9.00662109 C2.39367187,10.5803906 2.94791016,11.7423047 3.27855469,12.2948438 C3.38853516,12.4786523 3.58318359,12.5805469 3.78292969,12.5805469 C3.88546875,12.5805469 3.98935547,12.5536523 4.08380859,12.497168 C4.36207031,12.3307031 4.45265625,11.9701758 4.28613281,11.6919141 C4.01794922,11.2437891 3.56835937,10.2991992 3.57058594,9.00867188 L3.57058594,9.00867188 Z" id="Path"></path>
                                <path d="M14.7360352,12.2949023 C15.0643945,11.7461719 15.6155273,10.5922266 15.6181739,9.02953125 C15.6208594,7.45599609 15.0666797,6.29396484 14.7360937,5.74136719 C14.5696289,5.46316406 14.2093359,5.37246094 13.9308398,5.53898438 C13.6525781,5.70544922 13.5619336,6.06591797 13.7283984,6.34417969 C13.996582,6.79248047 14.4461719,7.73724609 14.4439453,9.02759766 C14.4417773,10.3089844 13.9947656,11.2470117 13.728457,11.6921484 C13.5619922,11.9704102 13.6525781,12.3308789 13.9308398,12.4974023 C14.025293,12.5538867 14.1291211,12.5807812 14.2316602,12.5807812 C14.4314062,12.5806055 14.6261133,12.4787109 14.7360352,12.2949023 Z" id="Path"></path>
                                <path d="M11.6811914,13.7392383 C11.2340625,14.0067773 10.2930469,14.4547852 9.00732422,14.4547852 C9.00421875,14.4547852 9.0009375,14.4547852 8.99789062,14.4547852 C7.71638672,14.4526172 6.77841797,14.0055469 6.33333984,13.7392383 C6.05507812,13.5727148 5.69455078,13.6633008 5.52808594,13.9416211 C5.36162109,14.2198828 5.45214844,14.5803516 5.73041016,14.7468164 C6.27914062,15.0751172 7.43302734,15.6263086 8.99589844,15.6289453 L9.00726562,15.6289453 C10.5751172,15.6289453 11.7329297,15.076582 12.2841211,14.7468164 C12.5623828,14.5803516 12.6529687,14.2198242 12.4864453,13.9416211 C12.3200391,13.663418 11.9596875,13.5727148 11.6811914,13.7392383 L11.6811914,13.7392383 Z" id="Path"></path>
                                <path d="M12.2841211,3.28933594 C11.7353906,2.96103516 10.5815039,2.40984375 9.01863281,2.40720703 C9.01476562,2.40720703 9.01113281,2.40720703 9.00726562,2.40720703 C7.43941406,2.40720703 6.28160156,2.95957031 5.73041016,3.28933594 C5.45214844,3.45580078 5.3615625,3.81632812 5.52808594,4.09453125 C5.69455078,4.37279297 6.05496094,4.46349609 6.33333984,4.29691406 C6.78046875,4.029375 7.72148437,3.58136719 9.00720703,3.58136719 L9.01664062,3.58136719 C10.2981445,3.58353516 11.2361133,4.03060547 11.6811914,4.29691406 C11.7756445,4.35339844 11.8795312,4.38029297 11.9820703,4.38029297 C12.1817578,4.38029297 12.3764648,4.27839844 12.4864453,4.09453125 C12.6529102,3.81632812 12.5623242,3.45580078 12.2841211,3.28933594 L12.2841211,3.28933594 Z" id="Path"></path>
                                <path d="M16.1192578,17.6321484 C15.8409375,17.4657422 15.4805273,17.5562695 15.3140625,17.8345313 C14.9857031,18.3832617 14.4345703,19.537207 14.4319238,21.0999609 C14.4292383,22.6737891 14.9834766,23.8356445 15.3140625,24.3881836 C15.424043,24.5719922 15.6186914,24.6738867 15.8184375,24.6738867 C15.9209766,24.6738867 16.0248633,24.6469922 16.1193164,24.5905078 C16.3975781,24.424043 16.4881641,24.0635156 16.3216406,23.7852539 C16.0535156,23.3370703 15.6039258,22.3925391 15.6061523,21.1018945 C15.6083203,19.8205078 16.055332,18.8824219 16.3216406,18.4373438 C16.4881055,18.1591406 16.3975195,17.7986719 16.1192578,17.6321484 L16.1192578,17.6321484 Z" id="Path"></path>
                                <path d="M28.9669922,16.9792383 C28.8195703,16.6904883 28.4658398,16.5759961 28.1771484,16.7234766 C27.8883984,16.870957 27.7738477,17.2246289 27.9213867,17.5133789 C28.4831836,18.6133594 28.7680664,19.802168 28.7680664,21.0466992 C28.7680664,25.3361133 25.2783398,28.8258984 20.9889258,28.8258984 C16.6994531,28.8258984 13.2097266,25.3361719 13.2097266,21.0466992 C13.2097266,16.7572266 16.6994531,13.2675 20.9889258,13.2675 C22.2405469,13.2675 23.4352734,13.5554297 24.54,14.1233203 C24.8282812,14.2715039 25.1823047,14.1579492 25.3305469,13.8696094 C25.4787891,13.5812695 25.3651758,13.2273047 25.0768359,13.0790625 C23.8223437,12.4341797 22.4088281,12.0933398 20.9889258,12.0933398 C19.5142969,12.0933398 18.121875,12.4519336 16.8939844,13.0861523 C17.5404492,11.8490039 17.9067187,10.4432813 17.9067187,8.95341797 C17.9067187,4.01648438 13.8902344,0 8.95330078,0 C4.01636719,0 0,4.01648438 0,8.95335937 C0,13.8902344 4.01642578,17.9067187 8.95330078,17.9067187 C10.4279297,17.9067187 11.8203516,17.548125 13.0482422,16.9139063 C12.4017773,18.1509961 12.0355078,19.5567773 12.0355078,21.0466406 C12.0355078,25.9835156 16.0519922,30 20.9888672,30 C25.9257422,30 29.942168,25.9835742 29.942168,21.0466406 C29.942168,19.614668 29.6141016,18.2462109 28.9669922,16.9792383 Z M1.17416016,8.95335938 C1.17416016,4.66388672 4.66388672,1.17416016 8.95330078,1.17416016 C13.2427734,1.17416016 16.7325,4.66388672 16.7325,8.95335938 C16.7325,13.2427734 13.2427734,16.7325586 8.95330078,16.7325586 C4.66388672,16.7325586 1.17416016,13.242832 1.17416016,8.95335938 Z" id="Shape"></path>
                                <path d="M25.9663477,24.5905078 C26.0608008,24.6469922 26.1646875,24.6738867 26.2672266,24.6738867 C26.4669141,24.6738867 26.6616211,24.5719922 26.7716016,24.388125 C27.0999609,23.8394531 27.6510937,22.6855664 27.6537403,21.1227539 C27.6564258,19.5488672 27.1021875,18.3870117 26.7716016,17.8345312 C26.6051953,17.5563867 26.2449023,17.465625 25.9663477,17.632207 C25.6880859,17.7986719 25.5975,18.1591992 25.7640234,18.4374609 C26.0321484,18.8856445 26.4817383,19.8301758 26.4795117,21.1208203 C26.4773437,22.4022656 26.030332,23.340293 25.7640234,23.7853711 C25.5975,24.0635156 25.6880859,24.424043 25.9663477,24.5905078 Z" id="Path"></path>
                                <path d="M17.5637109,26.0349023 C17.3972461,26.3131641 17.4877734,26.6736328 17.7660352,26.8400977 C18.3147656,27.1683984 19.4685937,27.7195898 21.0314648,27.7222266 L21.042832,27.7222266 C22.6108594,27.7222266 23.7685547,27.1698633 24.3196875,26.8400977 C24.5979492,26.6736328 24.6885352,26.3131055 24.5220117,26.0348438 C24.3554883,25.756582 23.9950195,25.6659961 23.7167578,25.8325195 C23.2696875,26.1000586 22.3287891,26.5480664 21.0428906,26.5480664 C21.0397852,26.5480664 21.0365039,26.5480664 21.033457,26.5480664 C19.7520117,26.5458984 18.814043,26.0988281 18.3689648,25.8325195 C18.0906445,25.6660547 17.7301172,25.7566406 17.5637109,26.0349023 L17.5637109,26.0349023 Z" id="Path"></path>
                                <path d="M24.3196289,15.3826172 C23.7708984,15.0543164 22.6170703,14.503125 21.0541992,14.5004883 C21.050332,14.5004883 21.0466992,14.5004883 21.042832,14.5004883 C19.4749805,14.5004883 18.317168,15.0528516 17.7659766,15.3826172 C17.4877148,15.549082 17.3971289,15.9096094 17.5636523,16.1878125 C17.6736328,16.3716211 17.8682812,16.4735742 18.0680273,16.4735742 C18.1705664,16.4735742 18.2744531,16.4466797 18.3689062,16.3901953 C18.8160352,16.1226563 19.7569922,15.6746484 21.0427734,15.6746484 L21.052207,15.6746484 C22.3336523,15.6768164 23.2716211,16.1238867 23.7166992,16.3901953 C23.9949609,16.5567188 24.3554297,16.4661328 24.5219531,16.1878125 C24.688418,15.9095508 24.597832,15.549082 24.3196289,15.3826172 Z" id="Path"></path>
                                <path d="M9.86320312,27.4278516 C6.87585937,26.5347656 4.7878125,23.9101172 4.50310547,20.8428516 L5.43591797,21.4631836 C5.705625,21.6427148 6.0703125,21.5695312 6.24984375,21.2994727 C6.429375,21.0294727 6.35607422,20.6650781 6.08607422,20.4855469 L4.21658203,19.2421875 C3.98601562,19.089082 3.66814453,19.12125 3.47355469,19.3187695 L1.88115234,20.9331445 C1.65345703,21.1639453 1.65603516,21.5356641 1.88683594,21.7633594 C2.00121094,21.8762109 2.15015625,21.9325195 2.29910156,21.9325195 C2.45068359,21.9325195 2.60220703,21.8741602 2.71705078,21.7577344 L3.35068359,21.1154297 C3.736875,24.5841797 6.12814453,27.5368359 9.526875,28.5529102 C9.84679687,28.6485938 10.1892187,28.4491992 10.2663281,28.1252344 C10.3374023,27.8266992 10.1568164,27.515625 9.86320312,27.4278516 L9.86320312,27.4278516 Z" id="Path"></path>
                                <path d="M20.1172266,2.65623047 C23.1045703,3.54931641 25.1926172,6.17396484 25.4773242,9.24123047 L24.5445117,8.62089844 C24.2747461,8.44142578 23.9101172,8.51466797 23.7305859,8.78466797 C23.5510547,9.05466797 23.6243555,9.4190625 23.8944141,9.59859375 L25.7639062,10.8418359 C25.994707,10.9958789 26.3121094,10.9625391 26.5069336,10.7652539 L28.0993359,9.1509375 C28.3270898,8.92013672 28.3244531,8.54841797 28.0936523,8.32072266 C27.8628516,8.09302734 27.4910742,8.09554688 27.2634375,8.32640625 L26.6298047,8.96876953 C26.2436133,5.50007812 23.8523437,2.54736328 20.4535547,1.53128906 C20.1471094,1.43953125 19.8144727,1.61917969 19.7228906,1.925625 C19.6313086,2.23207031 19.8107227,2.56458984 20.1172266,2.65623047 L20.1172266,2.65623047 Z" id="Path"></path>
                            </g>
                        </g>
                    </g>
                </g>
            </g>
        </g>
    </g>
</svg>