<svg xmlns="http://www.w3.org/2000/svg" width="106" height="11.861" viewBox="0 0 106 11.861">
  <g id="Group_2949" data-name="Group 2949" transform="translate(0 0)">
    <g id="Group_2299" data-name="Group 2299" transform="translate(0)">
      <path id="Path_5556" data-name="Path 5556" d="M241,927.377a6.1,6.1,0,0,0-5.776,3.789,5.91,5.91,0,0,0,1.72,6.661,6.213,6.213,0,0,0,6.977.615,5.949,5.949,0,0,0,2.913-6.207,6.052,6.052,0,0,0-4.905-4.769A6.238,6.238,0,0,0,241,927.377Zm-.126,9.494a3.653,3.653,0,0,1-3.55-2.8,3.556,3.556,0,0,1,1.423-3.651,3.729,3.729,0,0,1,3.9-.219,3.576,3.576,0,0,1,1.852,3.321A3.638,3.638,0,0,1,240.873,936.87Z" transform="translate(-234.822 -927.373)" fill="#fff"/>
    </g>
    <g id="Group_2300" data-name="Group 2300" transform="translate(16.143 2.185)">
      <path id="Path_5557" data-name="Path 5557" d="M294.755,937.248a2.026,2.026,0,0,0-.973-.267,1.9,1.9,0,0,0-1.01.277,1.962,1.962,0,0,0-.717.764,2.373,2.373,0,0,0,0,2.167,1.963,1.963,0,0,0,.717.764,1.9,1.9,0,0,0,1.01.277,2.218,2.218,0,0,0,.942-.23,2.976,2.976,0,0,0,.879-.628l1.12,1.2a4.481,4.481,0,0,1-1.418,1,3.936,3.936,0,0,1-3.6-.131,3.67,3.67,0,0,1-1.381-1.371,3.815,3.815,0,0,1-.5-1.947,3.656,3.656,0,0,1,1.921-3.276,4.172,4.172,0,0,1,3.616-.151,4,4,0,0,1,1.35.926l-1.109,1.34A2.731,2.731,0,0,0,294.755,937.248Z" transform="translate(-289.826 -935.327)" fill="#fff"/>
      <path id="Path_5558" data-name="Path 5558" d="M316.106,935.75h5.788v1.528h-3.873v1.371h3.5v1.518l-3.5.01v1.381H322v1.528h-5.893Z" transform="translate(-308.393 -935.604)" fill="#fff"/>
      <path id="Path_5559" data-name="Path 5559" d="M344.583,943.087l-1.067-2.03h-1.423v2.03h-1.916V935.75h3.3a3.4,3.4,0,0,1,2.255.675,2.348,2.348,0,0,1,.8,1.9,2.9,2.9,0,0,1-.335,1.428,2.317,2.317,0,0,1-.973.937l1.528,2.4Zm-2.491-3.558h1.392a1.29,1.29,0,0,0,.905-.293,1.093,1.093,0,0,0,.319-.848,1.049,1.049,0,0,0-.319-.821,1.306,1.306,0,0,0-.905-.288h-1.392Z" transform="translate(-325.795 -935.604)" fill="#fff"/>
      <path id="Path_5560" data-name="Path 5560" d="M363.822,935.75h6.29v1.58h-2.2v5.757H366V937.33h-2.177Z" transform="translate(-342.684 -935.604)" fill="#fff"/>
      <path id="Path_5561" data-name="Path 5561" d="M387.891,935.75h1.915v7.337h-1.915Z" transform="translate(-359.839 -935.604)" fill="#fff"/>
      <path id="Path_5562" data-name="Path 5562" d="M399.267,935.75h5.491v1.528h-3.576v1.633h3.286v1.528h-3.286v2.648h-1.915Z" transform="translate(-367.996 -935.604)" fill="#fff"/>
      <path id="Path_5563" data-name="Path 5563" d="M420.911,935.75h1.915v7.337h-1.915Z" transform="translate(-383.413 -935.604)" fill="#fff"/>
      <path id="Path_5564" data-name="Path 5564" d="M432.287,935.75h5.788v1.528H434.2v1.371h3.5v1.518l-3.5.01v1.381h3.977v1.528h-5.892Z" transform="translate(-391.586 -935.604)" fill="#fff"/>
      <path id="Path_5565" data-name="Path 5565" d="M461.555,936.211a3.376,3.376,0,0,1,1.376,1.292,3.947,3.947,0,0,1-.006,3.825,3.358,3.358,0,0,1-1.4,1.3,4.514,4.514,0,0,1-2.078.461h-3.088V935.75h3.161A4.343,4.343,0,0,1,461.555,936.211Zm-1,5.065a1.776,1.776,0,0,0,.67-.743,2.425,2.425,0,0,0,.241-1.1,2.322,2.322,0,0,0-.256-1.109,1.877,1.877,0,0,0-.706-.748,1.971,1.971,0,0,0-1.026-.267h-1.2v4.228h1.3A1.85,1.85,0,0,0,460.555,941.276Z" transform="translate(-408.798 -935.604)" fill="#fff"/>
      <path id="Path_5566" data-name="Path 5566" d="M494.084,937.041a3.692,3.692,0,0,0-1.114-.22,1.031,1.031,0,0,0-.56.131.426.426,0,0,0-.2.382.522.522,0,0,0,.178.4,1.37,1.37,0,0,0,.439.262q.262.1.775.256a10.112,10.112,0,0,1,1.261.44,2.206,2.206,0,0,1,.853.675,1.873,1.873,0,0,1,.356,1.188,2.028,2.028,0,0,1-.388,1.251,2.345,2.345,0,0,1-1.062.78,4.134,4.134,0,0,1-1.5.261,5.425,5.425,0,0,1-1.816-.319,4.957,4.957,0,0,1-1.564-.874l.742-1.5a4.623,4.623,0,0,0,1.314.806,3.582,3.582,0,0,0,1.345.314,1.251,1.251,0,0,0,.675-.157.514.514,0,0,0,.246-.461.543.543,0,0,0-.183-.419,1.346,1.346,0,0,0-.46-.267q-.277-.1-.78-.236a9.643,9.643,0,0,1-1.245-.424,2.2,2.2,0,0,1-.843-.649,1.787,1.787,0,0,1-.351-1.156,2.016,2.016,0,0,1,.362-1.193,2.293,2.293,0,0,1,1.026-.79,3.981,3.981,0,0,1,1.543-.278,5.594,5.594,0,0,1,1.57.225,5.2,5.2,0,0,1,1.361.6l-.723,1.528A6.442,6.442,0,0,0,494.084,937.041Z" transform="translate(-432.63 -935.251)" fill="#fff"/>
      <path id="Path_5567" data-name="Path 5567" d="M514.625,935.75h1.915v2.993H519.5V935.75h1.915v7.337H519.5v-2.815H516.54v2.815h-1.915Z" transform="translate(-450.419 -935.604)" fill="#fff"/>
      <path id="Path_5568" data-name="Path 5568" d="M547.005,935.851a3.648,3.648,0,0,1,1.941,3.276,3.712,3.712,0,0,1-1.941,3.318,4.353,4.353,0,0,1-4.051.006,3.686,3.686,0,0,1-1.423-1.371,3.754,3.754,0,0,1-.518-1.952,3.649,3.649,0,0,1,1.941-3.276,4.418,4.418,0,0,1,4.051,0Zm-3.014,1.413a2.032,2.032,0,0,0-.738.78,2.334,2.334,0,0,0,.005,2.2,2.127,2.127,0,0,0,.738.785,1.854,1.854,0,0,0,1,.288,1.83,1.83,0,0,0,1-.288,2.023,2.023,0,0,0,.717-.785,2.442,2.442,0,0,0,0-2.2,1.984,1.984,0,0,0-.717-.78,1.861,1.861,0,0,0-1-.282A1.914,1.914,0,0,0,543.991,937.264Z" transform="translate(-469.492 -935.327)" fill="#fff"/>
      <path id="Path_5569" data-name="Path 5569" d="M576.69,936.425a2.387,2.387,0,0,1,.775,1.9,2.609,2.609,0,0,1-.775,2.015,3.084,3.084,0,0,1-2.177.717h-1.308v2.03H571.29V935.75h3.223A3.209,3.209,0,0,1,576.69,936.425Zm-1.366,2.81a1.092,1.092,0,0,0,.319-.848,1.048,1.048,0,0,0-.319-.821,1.306,1.306,0,0,0-.905-.288h-1.214v2.25h1.214A1.29,1.29,0,0,0,575.325,939.235Z" transform="translate(-490.883 -935.604)" fill="#fff"/>
    </g>
    <path id="Path_5570" data-name="Path 5570" d="M596.974,935.416a1.237,1.237,0,0,1,.444,1.679,1.234,1.234,0,0,1-.445.453,1.232,1.232,0,0,1-1.242,0,1.238,1.238,0,0,1-.441-1.677,1.242,1.242,0,0,1,.444-.453,1.188,1.188,0,0,1,.622-.169A1.2,1.2,0,0,1,596.974,935.416Zm-.151,1.873a.948.948,0,0,0,.339-.341.927.927,0,0,0-.807-1.4.9.9,0,0,0-.473.127.935.935,0,0,0-.335.341.949.949,0,0,0,0,.934.936.936,0,0,0,1.278.335Zm-.005-.792a.326.326,0,0,1-.154.143l.243.377h-.337l-.17-.319h-.217v.319h-.294v-1.149h.5a.54.54,0,0,1,.357.105.367.367,0,0,1,.125.3A.465.465,0,0,1,596.817,936.5Zm-.636-.031h.207a.208.208,0,0,0,.147-.049.177.177,0,0,0,.053-.136.17.17,0,0,0-.053-.136.217.217,0,0,0-.147-.046h-.207Z" transform="translate(-491.581 -932.998)" fill="#fff"/>
  </g>
</svg>
