<?xml version="1.0" encoding="UTF-8"?>
<svg width="36px" height="36px" viewBox="0 0 36 36" version="1.1" xmlns="http://www.w3.org/2000/svg" xmlns:xlink="http://www.w3.org/1999/xlink">
    <title>Bitmap</title>
    <defs>
        <rect id="path-1" x="0" y="0" width="36" height="36"></rect>
    </defs>
    <g id="Desktop" stroke="none" stroke-width="1" fill="none" fill-rule="evenodd">
        <g id="Storitve-nivo-1" transform="translate(-492.000000, -488.000000)">
            <g id="Group-23" transform="translate(460.000000, 138.176624)">
                <g id="Group-12" transform="translate(32.000000, 61.823376)">
                    <g id="Bitmap" transform="translate(0.000000, 288.000000)">
                        <mask id="mask-2" fill="white">
                            <use xlink:href="#path-1"></use>
                        </mask>
                        <use id="Mask" fill-opacity="0" fill="#F0F2F4" xlink:href="#path-1"></use>
                        <g id="coin" mask="url(#mask-2)" fill="#005DAC" fill-rule="nonzero">
                            <g transform="translate(4.000000, 4.000000)">
                                <path d="M23.8995312,4.10052344 C21.2552266,1.45621875 17.7395859,0 14,0 C10.2604141,0 6.74477344,1.45621875 4.10046875,4.10052344 C1.45621875,6.74477344 0,10.2604688 0,14 C0,17.7395312 1.45621875,21.2552266 4.10046875,23.8994766 C6.74477344,26.5437813 10.2604141,28 14,28 C17.7395859,28 21.2552266,26.5437813 23.8995312,23.8994766 C26.5437813,21.2552266 28,17.7395312 28,14 C28,10.2604688 26.5437813,6.74477344 23.8995312,4.10052344 Z M14,26.7826016 C6.95165625,26.7826016 1.21739844,21.0483438 1.21739844,14 C1.21739844,6.95165625 6.95165625,1.21739844 14,1.21739844 C21.0483438,1.21739844 26.7826016,6.95165625 26.7826016,14 C26.7826016,21.0483438 21.0483438,26.7826016 14,26.7826016 Z" id="Shape"></path>
                                <path d="M16.1098438,17.34775 C15.4794063,17.7460391 14.7498203,17.9565313 14,17.9565313 C12.4768438,17.9565313 11.1528047,17.0908281 10.4918516,15.8260703 L12.7826016,15.8260703 C13.1187109,15.8260703 13.3912734,15.5535625 13.3912734,15.2173984 C13.3912734,14.8812344 13.1187109,14.6087266 12.7826016,14.6087266 L10.0903906,14.6087266 C10.0596016,14.4102109 10.0434688,14.2069922 10.0434688,14.0000547 C10.0434688,13.7931172 10.0596016,13.5898438 10.0903906,13.3913828 L12.7826016,13.3913828 C13.1187109,13.3913828 13.3912734,13.118875 13.3912734,12.7827109 C13.3912734,12.4465469 13.1187109,12.1740391 12.7826016,12.1740391 L10.4918516,12.1740391 C11.1528594,10.9092813 12.4768438,10.0435781 14,10.0435781 C14.7499297,10.0435781 15.479625,10.254125 16.1100625,10.6525234 C16.3943828,10.8322266 16.77025,10.7472969 16.9498437,10.4630859 C17.1293828,10.178875 17.0446172,9.80295313 16.7604062,9.62341406 C15.9350078,9.10185938 14.9804375,8.82617969 14.0000547,8.82617969 C11.7898047,8.82617969 9.89975,10.2197266 9.1599375,12.1739844 L7.9130625,12.1739844 C7.57695312,12.1739844 7.30439062,12.4464922 7.30439062,12.7826563 C7.30439062,13.1188203 7.57695312,13.3913281 7.9130625,13.3913281 L8.86309375,13.3913281 C8.83952344,13.5911563 8.82607031,13.7939922 8.82607031,14 C8.82607031,14.2060625 8.83952344,14.4088438 8.86309375,14.6086719 L7.9130625,14.6086719 C7.57695312,14.6086719 7.30439062,14.8811797 7.30439062,15.2173438 C7.30439062,15.5535078 7.57695312,15.8260156 7.9130625,15.8260156 L9.1599375,15.8260156 C9.89975,17.7802734 11.7898047,19.1738203 14.0000547,19.1738203 C14.9803828,19.1738203 15.9347891,18.89825 16.7601328,18.3768594 C17.0443437,18.1972656 17.1291641,17.8213438 16.949625,17.5371875 C16.7701406,17.2530859 16.3941641,17.1682109 16.1098438,17.34775 Z" id="Path"></path>
                                <path d="M22.0778359,7.53205469 C21.8674531,7.26971875 21.4843672,7.22766406 21.2221406,7.43788281 C20.9598047,7.64821094 20.9176953,8.03124219 21.1279141,8.29352344 C22.4380078,9.92764063 23.1304609,11.900875 23.1304609,14 C23.1304609,19.0345313 19.0345313,23.1304609 14,23.1304609 C8.96546875,23.1304609 4.86959375,19.0345313 4.86959375,14 C4.86959375,8.96546875 8.96546875,4.86959375 14,4.86959375 C15.5824375,4.86959375 17.14125,5.28057031 18.5081094,6.05811719 C18.8000859,6.2243125 19.1718516,6.12226563 19.3381016,5.83001563 C19.5043516,5.53782031 19.40225,5.16616406 19.11,4.99991406 C17.5601563,4.11824219 15.7930938,3.65219531 14,3.65219531 C8.29423438,3.65219531 3.65219531,8.29423438 3.65219531,14 C3.65219531,19.7057656 8.29423438,24.3478047 14,24.3478047 C19.7057656,24.3478047 24.3478047,19.7057656 24.3478047,14 C24.3478047,11.6551094 23.5416563,9.35807031 22.0778359,7.53205469 Z" id="Path"></path>
                                <path d="M20.7350937,6.15332812 C20.5939453,6.012125 20.3838906,5.94759375 20.1860312,5.98713281 C20.1470937,5.9950625 20.1086484,6.00660156 20.0722266,6.02180469 C20.0350937,6.03700781 19.9997656,6.055875 19.9670078,6.07780469 C19.9334844,6.10033594 19.9024219,6.12527344 19.8744219,6.15327344 C19.7612187,6.26707812 19.6960859,6.42353906 19.6960859,6.58421094 C19.6960859,6.62380469 19.7002969,6.66394531 19.7082812,6.70288281 C19.7163203,6.74182031 19.7278594,6.78021094 19.7431172,6.8166875 C19.7583203,6.85382031 19.7772422,6.88914844 19.7991172,6.92201563 C19.8210469,6.95548438 19.8465859,6.98654688 19.8745859,7.01454688 C19.9025859,7.04254688 19.9336484,7.06808594 19.9671719,7.09001563 C19.9999844,7.11194531 20.0352578,7.1308125 20.0723906,7.14601563 C20.1089219,7.16121875 20.1472578,7.1728125 20.1861953,7.1806875 C20.2251328,7.18861719 20.2653281,7.19288281 20.3048672,7.19288281 C20.4655391,7.19288281 20.622,7.12775 20.7351484,7.01454688 C20.7631484,6.98654688 20.7887969,6.95548438 20.8112187,6.92201563 C20.8331484,6.88914844 20.8520156,6.85382031 20.8672187,6.8166875 C20.8824219,6.78015625 20.8940156,6.74182031 20.9018906,6.70288281 C20.9098203,6.66394531 20.9134297,6.62375 20.9134297,6.58421094 C20.9134844,6.42353906 20.8488984,6.26713281 20.7350937,6.15332812 Z" id="Path"></path>
                            </g>
                        </g>
                    </g>
                </g>
            </g>
        </g>
    </g>
</svg>